/* XPM */
static char *koto_sprite[] = {
/* columns rows colors chars-per-pixel */
"64 64 149 2 ",
"   c None",
".  c #252502",
"X  c #313101",
"o  c #2D2E20",
"O  c #2C2C2C",
"+  c #3D292A",
"@  c #3E232B",
"#  c #3E3E3E",
"$  c #6D1F25",
"%  c #7D1A23",
"&  c #771B24",
"*  c #432729",
"=  c #4C2529",
"-  c #5C2227",
";  c #532428",
":  c #563325",
">  c #632126",
",  c #6D292F",
"<  c #782027",
"1  c #732229",
"2  c #7D282F",
"3  c #474601",
"4  c #575601",
"5  c #5A5A01",
"6  c #494A16",
"7  c #5F431F",
"8  c #6B541D",
"9  c #626201",
"0  c #6C6B01",
"q  c #767502",
"w  c #7F7E01",
"e  c #5C5320",
"r  c #664222",
"t  c #454544",
"y  c #4A4949",
"u  c #474D4C",
"i  c #525151",
"p  c #5C5C5C",
"a  c #784246",
"s  c #784C50",
"d  c #646464",
"f  c #6C6B6B",
"g  c #747474",
"h  c #7C7C7C",
"j  c #767B7A",
"k  c #AD0E1B",
"l  c #B60F1D",
"z  c #B90F1D",
"x  c #A5141F",
"c  c #AE111E",
"v  c #B3101E",
"b  c #B1191D",
"n  c #99291F",
"m  c #99241F",
"M  c #99371E",
"N  c #A1231F",
"B  c #811720",
"V  c #821A23",
"C  c #8A1922",
"Z  c #931721",
"A  c #9B1520",
"S  c #901822",
"D  c #981D28",
"F  c #AA1A26",
"G  c #A71D28",
"H  c #AC1B28",
"J  c #B51422",
"K  c #912E36",
"L  c #86343B",
"P  c #92353D",
"I  c #C30E1D",
"U  c #CB0C1B",
"Y  c #D3091B",
"T  c #DA091A",
"R  c #D5061B",
"E  c #E30619",
"W  c #EB0318",
"Q  c #F40217",
"!  c #FE0016",
"~  c #FF0E15",
"^  c #FF1215",
"/  c #FF2D12",
"(  c #94491D",
")  c #94651A",
"_  c #FF4C0F",
"`  c #FF550F",
"'  c #FF5C0E",
"]  c #FF620D",
"[  c #FF790C",
"{  c #8C3B42",
"}  c #903F46",
"|  c #983840",
" . c #844248",
".. c #8F4248",
"X. c #95454B",
"o. c #8E5055",
"O. c #805A5D",
"+. c #848401",
"@. c #8C8B01",
"#. c #9D9D01",
"$. c #939201",
"%. c #9E9F10",
"&. c #A08D16",
"*. c #A1A002",
"=. c #A8A801",
"-. c #A9AA0C",
";. c #B6B602",
":. c #BBBB01",
">. c #A8A113",
",. c #B3AC11",
"<. c #BDC30D",
"1. c #C8C702",
"2. c #CCCC00",
"3. c #C3C301",
"4. c #CFD10A",
"5. c #D3D302",
"6. c #E4E706",
"7. c #EBEB00",
"8. c #F5F501",
"9. c #FDFD00",
"0. c #848484",
"q. c #858989",
"w. c #8D8D8D",
"e. c #8C9090",
"r. c #949494",
"t. c #9A9A9A",
"y. c #A0A09F",
"u. c #A4A5A5",
"i. c #A7A9A9",
"p. c #ABABAB",
"a. c #B2B2B2",
"s. c #BABABA",
"d. c #C0C0BF",
"f. c #BCC3C2",
"g. c #C3C3C3",
"h. c #CBCBCB",
"j. c #C7CBCB",
"k. c #D3D3D3",
"l. c #D8D7D7",
"z. c #DCDCDC",
"x. c #D9E0DF",
"c. c #DBE3E2",
"v. c #E2E3E3",
"b. c #E5E9E9",
"n. c #EAEBEB",
"m. c #EDF1F1",
"M. c #F5F5F4",
"N. c #F6F8F7",
"B. c #FEFEFE",
/* pixels */
"                                                                                                                                ",
"                                                                                                                                ",
"                                                              .                                                                 ",
"                                                            9 9                                                                 ",
"                                                            ) $.                                                                ",
"                                                            #.;.                                                                ",
"                                                            :.5.                                                                ",
"                                                            @.#.X                                                               ",
"                                                          3 3.5.0                                                               ",
"                                                          0 8.9.@.                                                              ",
"                                                          +.9.9.=.                                                              ",
"                                                          #.8.8.<.                                                              ",
"                                                          q *.#.@.                                                              ",
"                                                          5.9.9.7.5                                                             ",
"                                                        5 7.9.9.9.+.                                                            ",
"                                                        q 8.9.9.9.#.                                                            ",
"                                                        0 2.-.%.5.@.                                                            ",
"                                                        +.:.8 r ;.*.                                                            ",
"                                                      o 2.6.M N 4.7.6                                                           ",
"                                              O       : 5.,.I Y &.8.8 @     O                                                   ",
"                                              ; =   - F >.) W Q ( <.n &     -                                                   ",
"                                              A V   V E r m ! ! b e U F   > v                                                   ",
"                                              Y J O J ! A Y ! ! E % W R + C W >                                                 ",
"                                            > Q R ; R ! ! ! ! ! ! ! ! Q > v ! S                                                 ",
"                                            Z ! Q z ! ! ! ! ! ! ! ! ! ! I W ! z                                                 ",
"                                            z ! ! ! ! ! ! ! ! ! ! ! ! ~ / ~ ! T =                                               ",
"                                            z ! ! ! ! ! ! ! ! ! ! ! ! _ [ ' ! T =                                               ",
"                                            z ! ! ! ! ! ! ! ! ! ! ! ' ] ^ ] ] T =                                               ",
"                                            z ! ! ! ! ! ! ! ! ! ! ! ' ] ^ ' ] T =                                               ",
"                                            z ! ! ! ! ! ! ! ! ! ! ! ! ` [ ` ! T =                                               ",
"                                            z ! ! ! ! ! ! ! ! ! ! ! ! ^ / ^ ! T =                                               ",
"                                            z ! ! ! ! ! ! ! ! ! ! ! ! ! ! ! ! T =                                               ",
"                                            J I H H H H F W U J J J J J E ! Q c *                                               ",
"                                            % s j.h.h.h.r.v P a.g.d.g.t.D v Z C *                                               ",
"                                            V s N.B.B.B.s.S  .n.B.B.B.h., z W T =                                               ",
"                                            k o.c.b.b.n.i.V a z.m.m.M.f.G ! ! T =                                               ",
"                                            v F P | | | K T F ..X.X.X.{ I ! ! T =                                               ",
"                                            z ! ! ! ! ! ! ! ! Q ! ! Q ! ! ! ! T =                                               ",
"                                            z ! ! ! ! T U ! ! ! ! ! ! ! ! ! ! T =                                               ",
"                                            z ! ! ! ! Z Y ! ! ! ! ! ! ! ! ! ! T =                                               ",
"                                            J ! ! ! W % I ! ! ! ! ! ! ! ! ! ! T =                                               ",
"                                            z ! ! ! ! E F Q ! ! ! ! ! ! ! ! ! T =                                               ",
"                                            v ! ! ! ! ! ! ! ! ! Q ! ! ! ! ! ! T =                                               ",
"                                            > V % < L ..L 1 L { { 1 L { { 2 % $                                                 ",
"                                                  u h.v.e.0.u.m.j.g q.z.b.j                                                     ",
"                                              y   u v.u.u.b.t.N.a.g.i.t.B.h #                                                   ",
"                                              p.z.r.z.h.r.p.t.l.t.t.w.k.N.w.g.h.p                                               ",
"                                              j.B.y.z.B.h.e.s.r.u.t.p.B.B.r.n.M.f                                               ",
"                                              h.B.t.l.B.h.t.l.d u.r.n.B.B.r.b.M.g                                               ",
"                                              k.B.r.z.B.B.k.r.f h v.B.B.N.w.v.N.g                                               ",
"                                              l.B.w.z.B.B.B.z.j u.B.B.B.B.w.v.N.j                                               ",
"                                              l.B.q.z.B.B.B.B.k.i.B.B.B.B.0.z.N.h                                               ",
"                                            i z.B.0.z.B.B.B.B.l.u.B.B.B.B.0.l.B.h                                               ",
"                                            i z.N.h z.B.B.B.l.s.i.B.B.B.N.0.l.B.0.                                              ",
"                                            p v.N.g z.B.B.M.h.u.u.B.B.B.B.0.k.B.q.                                              ",
"                                            i d.k.f z.B.B.B.k.p.u.B.B.B.B.h a.l.g                                               ",
"                                              f f y z.B.B.M.h.u.u.n.c.x.n.h p h t                                               ",
"                                                  i v.B.B.B.n.g.u.k.f.x.c.0.                                                    ",
"                                                  t t.p.a.a.a.r.j p.p.s.i.d                                                     ",
"                                                      i d.s.t     w.k.O.                                                        ",
"                                                      i p.u.y     0.s.g                                                         ",
"                                                i s.h.h.h.d.p     t.k.h.h.h.h                                                   ",
"                                                i s.h.h.h.g.p     t.h.h.h.h.h                                                   ",
"                                                                                                                                "
};
