/* XPM */
static char *moco04[] = {
/* columns rows colors chars-per-pixel */
"64 64 174 2 ",
"   c #271204",
".  c #2A1505",
"X  c #2E1807",
"o  c #2C1708",
"O  c #2E190A",
"+  c #311A07",
"@  c #341D09",
"#  c #36200D",
"$  c #3B230C",
"%  c #362212",
"&  c #3B2611",
"*  c #3E2915",
"=  c #3C2918",
"-  c #41270D",
";  c #44290E",
":  c #492D0F",
">  c #452C12",
",  c #4A2F11",
"<  c #412D1A",
"1  c #4D3112",
"2  c #46301C",
"3  c #4C341A",
"4  c #523514",
"5  c #553817",
"6  c #513718",
"7  c #563B1A",
"8  c #5A3D1B",
"9  c #473624",
"0  c #4B3724",
"q  c #4B3925",
"w  c #4D3C2A",
"e  c #523D24",
"r  c #523E2A",
"t  c #5E401E",
"y  c #61421E",
"u  c #5C4323",
"i  c #55432C",
"p  c #5B472B",
"a  c #5E492B",
"s  c #554532",
"d  c #594632",
"f  c #5C4B34",
"g  c #5E4E39",
"h  c #574935",
"j  c #5F513B",
"k  c #634623",
"l  c #664826",
"z  c #6A4A26",
"x  c #634B2B",
"c  c #6B4E2A",
"v  c #704F2A",
"b  c #6D512E",
"n  c #72522D",
"m  c #634E33",
"M  c #655135",
"N  c #6B5334",
"B  c #63533C",
"V  c #6A563A",
"C  c #6C593D",
"Z  c #735633",
"A  c #785731",
"S  c #745835",
"D  c #7B5A34",
"F  c #745B3B",
"G  c #7A5E3B",
"H  c #7E613E",
"J  c #5F5341",
"K  c #635642",
"L  c #695741",
"P  c #665944",
"I  c #6B5C44",
"U  c #6D5F48",
"Y  c #725E42",
"T  c #715F48",
"R  c #6F6049",
"E  c #736146",
"W  c #7B6344",
"Q  c #74644C",
"!  c #78674D",
"~  c #7A684F",
"^  c #766750",
"/  c #796750",
"(  c #776851",
")  c #7C6B52",
"_  c #7E6F58",
"`  c #7F7059",
"'  c #805E37",
"]  c #815F38",
"[  c #84623B",
"{  c #88663E",
"}  c #836643",
"|  c #876946",
" . c #8C6B44",
".. c #856C4B",
"X. c #8A6D4A",
"o. c #906E46",
"O. c #8D714E",
"+. c #94744D",
"@. c #98764E",
"#. c #9A784F",
"$. c #816E53",
"%. c #806E58",
"&. c #857156",
"*. c #8A7455",
"=. c #85735A",
"-. c #89765A",
";. c #8C795D",
":. c #927652",
">. c #967954",
",. c #9B7A53",
"<. c #947C5C",
"1. c #9B7E59",
"2. c #A07F56",
"3. c #877760",
"4. c #877861",
"5. c #8C7B62",
"6. c #917E63",
"7. c #9C805D",
"8. c #A4835C",
"9. c #A9885F",
"0. c #948166",
"q. c #998466",
"w. c #95846B",
"e. c #98866B",
"r. c #9B896E",
"t. c #9D8C72",
"y. c #A18561",
"u. c #A48964",
"i. c #AB8B63",
"p. c #A28C6C",
"a. c #AA8E69",
"s. c #B08F66",
"d. c #AD916D",
"f. c #B4956C",
"g. c #B8986E",
"h. c #A18F73",
"j. c #A39175",
"k. c #AB9474",
"l. c #A5957B",
"z. c #A8977C",
"x. c #A7987E",
"c. c #AA997E",
"v. c #B39771",
"b. c #B49973",
"n. c #BC9D74",
"m. c #B29C7C",
"M. c #BA9E78",
"N. c #BCA17C",
"B. c #C0A177",
"V. c #C3A47B",
"C. c #C6A87F",
"Z. c #AC9D82",
"A. c #B29F81",
"S. c #AFA086",
"D. c #B3A185",
"F. c #B9A484",
"G. c #BEA887",
"H. c #B5A58A",
"J. c #B9A78A",
"K. c #B7A88D",
"L. c #BBAA8D",
"P. c #BDAD92",
"I. c #BFB095",
"U. c #C5AA83",
"Y. c #C1AD8E",
"T. c #C1AF92",
"R. c #C2B295",
"E. c #C8B495",
"W. c #C4B599",
"Q. c #C9B799",
"!. c #C7B89C",
"~. c #CBBA9D",
"^. c #CDBEA1",
"/. c #D0C1A4",
/* pixels */
"~.^.Q.m.k.X.l @ @ 5.P 3.3.) ( Q Q R R E Q ^ ~ ) ) ` 7.~ ~ ~ 7.~ ) ..) 7.~ ~ ` *.7.~ ~ ) ) H ^ C q J C ^ =.~ ) ) ~ E ! ~ ~ ~ ~ ) ",
"~.^.Q.c.h.| l @ o h %.5.%.) ( R R R R R E ^ ) ) ) ) ` &.7.) ~ ~ ~ 7.` ` ~ 7.) ` ) ) ) ) &.) ( C i j C R _ E ~ ~ ~ ^ Q Q Q Q ) ) ",
"~.~.Q.m.h. .z - . L j.5.=.( ^ R Q R C R Q ~ ~ ) ~ ! 7.~ ..` 7.) ) ` 7.) ..` ..7.~ ~ H 7.) ) ~ R h h R R _ ! E ^ ~ Q ~ ^ Q Q ~ ~ ",
"Q.Q.E.m.p. .k > . / h.5.4.) ^ R R R R R E ~ ~ ) ~ 7.) ) ` *.) ` ` *.~ 7.7.) ~ ~ ~ ~ ~ ) ) ) ! H h i C R _ ) E ^ ^ Q ! E ^ ^ ~ ~ ",
"Q.Q.Y.m.r.X.k , . I t.5.=._ ^ R R R R Q H ! ) ) ~ &.&.&.&.0.) ) ) ~ ` 7.) ~ ~ ` ) ) ) ) ~ ~ Q Q K i R R ( =.E Q ^ ~ ^ ^ ~ ~ ~ ~ ",
"Q.Q.R.m.e.X.k 4 . B t.5.=.` ( ^ R R R E R ! ~ ) ) &.&.&.7.` 7.&.*.7.) ) ~ 7.~ 7.&.) ~ ) ~ ~ ~ Q P 9 C R ^ =.E E ~ ~ ~ ~ ~ ~ ~ ~ ",
"Q.Q.E.A.0.*.k 4 X d w.4.=.` ( ^ R P C R R Q ~ ) ) &.&.) ` 7.) &.*.*.) ` ! 7.~ ` ) ~ ) ) ) ) ~ ~ R 9 J C ^ =.Q ~ ~ ) ) ~ ~ ~ ~ ~ ",
"E.Y.T.A.0.*.z 4 + r t.4.=._ ( ^ U C R R E E ~ ) &.) &.7.0.` 7.) *.` ) 7.~ O.) ` 7.&.) &.) ) ~ ~ Q i B R ^ =.~ ^ ~ ) _ ~ ( ( ~ ( ",
"Y.Y.Y.A.6.:.z 4 @ 0 r.5.=./ / ^ P C R R R R E _ &.&.) ` 7.) 7.&.` 7.) 7.) ) ) ~ ) ` ) ~ ~ ~ ~ ~ Q i j R ~ =.~ Q ~ ~ ~ ) ~ ^ ~ Q ",
"L.U.Y.6.%.-.z 4 @ 2 6.6.=._ ^ T P C C ^ _ =.0.0.0.&.&.) ` 0.` *.7.` 0.) 7.` ` 7.` ..*.` ~ ~ ) ) Q h h C ~ =.) ^ ^ ~ ^ ~ ) ~ ~ ~ ",
"J.Y.z.L =.*.c 8 $ < 5.6.4._ ^ U C R ` d.v.v.k.k.7.0.&.7.0.&._ &.0.) ` *.7.) ` &.) ` ` ~ E ~ ~ ) ^ f h R ~ ` $.~ ~ ~ Q ) ) ~ ) ) ",
"L.A.! e.6.*.c 8 - $ -.6.4.%./ L C 0.b.N.N.v.a.u.7.&.&.) 0.0.0.` &.7.7.` &.) 7.) 7.` ~ 7.7.) ) ) ~ j i R Q $.` ^ Q Q ! ~ ~ ^ ( ) ",
"F.6.%.A.6...Z 8 - @ %.6.-.%./ U ` d.C.V.b.u.7.7.O.X.~ ) 0.7.` 7.0.7.0.) 7.~ =.0.~ ` *.` *.~ ` ` ) j i C ^ $.=.( ~ ^ ^ ) Q Q ~ ) ",
"j.T Z.m.! $.Z 8 - + ! ;.=.%.! ) v.N.C.n.v.8.7.7.W H Z S ~ &.0.` 0.) &.7.7._ ) 7.7.*.) ` 7.) ..` ^ B i P Q ~ ` ~ ) ) ~ ~ ^ Q ) ( ",
"L 6.A.6.L ..Z 8 > o I 5.=.) Q -.n.C.C.n.s.9.7.{ H F N c m C Q 0.` _ 0.` ) ` 0._ ) 7.~ ` _ _ ` ) ~ K 9 J Q ^ =.) ) ~ ^ ^ ^ ( ) ( ",
"/ c.A.$.$.! S 8 > X B -.=./ Q p.C.C.N.n.s.8.7.7.O.H N t 1 t p G ) 7.&.0.=.=.` 7.&._ ~ ) _ ~ ` ) ^ P 9 K Q ( =._ ) ~ ( ( ^ ) ) ^ ",
"c.m.j.T 6.T D 8 ; X f -.=./ Q a.C.g.i.8.,.@.+.O.W H b t t > 1 x H &.;.;.;.;.=.=.=._ $.$._ $._ _ ~ C q K Q ^ $.=.) Q Q Q ) _ ( ) ",
"m.k.6./ p.Y Z 8 1 X i -.=.) _ d.g.:.{ { D Z S S H C b a t > $ t a C &.;.=.=.&.=.&.$.$._ $.) $.) ~ C q J Q ^ ) =.) ( Q Q ) ) ( _ ",
"k.z.T 6.h.Y b 7 4 X 0 ;.-./ 5.a.i. .D D b 7 1 3 t t x t t * : 1 t a Q -.=.-.$.&.&.&._ $.$.) ) ) ( U q J Q ) ( =.( ^ Q Q ( ( _ _ ",
"k.e.T j.h.T b 8 1 + 2 ;.-.=.<.f.f.9.:. .S k 3 > t t t l t t 1 1 1 u C &.-.&.=.&.&._ $.) _ ) ~ ) ) C 9 J R ( ^ =.( ^ Q Q ^ ^ _ ( ",
"j.$.=.h.p.! b 8 1 @ > -.5.q.d.g.s.9.>. .G x u 8 t t y l y t 4 1 1 t a Q &.=.=.&.=.) $.) ) ) ~ ) ) C 9 J R ( Q =.Q ^ ^ Q Q ^ ) ( ",
"e.L r.h.p.! N 8 1 @ > &.q.d.d.7.O. .H b l l k t y y c l y 5 : : ; : u V ~ &.=.&._ $.&._ ~ ~ ~ ) ( P i P C ^ ^ =.( ^ ^ Q Q ^ ^ ^ ",
"$.T p.p.p.&.C 8 1 $ # &.q.p.7.} S x u 8 t x n Z n D A v y 4 : ; - - : u I $.=.=.=.$.&._ ( Q ~ ) ^ j i K E ^ ~ ) Q ( Q Q R Q ^ ^ ",
"L ;.r.p.e.$.C y 4 $ # Q 5.<.>.X.W S x x n D [ [ [ H D n y 4 1 : ; $ # ; u I ) $.$.) $.) ) Q ~ ) ^ f i K R ^ _ ^ Q ~ Q Q R Q ^ ^ ",
"B e.6.p.0.*.N k 4 @ @ Y &.) ..O.>.+. .[ ] { { { ] ] A v y t 4 : ; $ $ - , t p m H ) _ ) ~ ~ ( ~ C h h J P ^ _ Q Q ( R ^ Q R ^ R ",
"*.6.6.6.0.*.V e , - + V _ ! R ! *.7.8.+.{ { { { { { ' v y 5 4 : ; ; - : : t 6 t a C ( ( ~ ( Q ^ U i h P R ( ^ ^ Q Q Q ^ Q R R R ",
"6.6.6.6.6.*.N e , - . M &.! R I W ..:.7.9.8.7.@.{ [ A v y t 4 4 1 1 1 : : 1 t 6 t a C ) Q ~ Q ^ P w J P R ( ^ ^ ^ Q Q Q ^ R R ^ ",
"6.<.6.6.6.*.N p , - . d &.Q I C B g M W g.f.7.o.{ [ D v z y y y t t t t 6 : 1 t t a M F C ( C ^ P w J P ^ Q R ^ Q Q Q ^ R Q R ^ ",
"-.;.;.6.;.*.V k 1 : X r ) T I B g f f V d.N.i.o.+.{ [ A z z y y t 1 t t t 3 t t u u x V Q Q Q ^ j w J P ^ U R Q R Q Q ^ ^ R R Q ",
"-.;.;.*.=.*.F e , : + 0 ) T L M g a d f 7.V.g.8.@.{ [ D n n y y t t t t t 1 1 t k u l M C Q C C h i J U Q R R R R R Q Q Q R P U ",
"-.=.=.=.-.*.Y p , , + < ! T C j g f d f W g.N.f.7.{ o.{ ' v y y t y k k t t t u x c x x P R C P w h J Q R R U U R R R R Q R P R ",
"-.*.$...*.-.Y p , > + > T T L B f i i d g q.V.g.7.o.7.{ { A v z z z z z k t u u c x x m V P P J 9 j J R U U P U U C R R R P P R ",
"$.$.$.&.&.-.E p , : $ & R R V j p i i i i 0.C.N.8.8.8.o.{ ] D v v l z z k k z b x a a u m P P i w j P I P P U P P I R R U P P R ",
") ~ $.$.&.&.E t , : $ # V C B g i i i i i M u.n.s.9.8.@.o.{ [ A n z n z k k b b b a u t x B j q h j I P P U P U I P P U P P P P ",
"! ! ) ) ~ &.E 7 : : $ # B C j g i i i 9 i i 7.M.g.8.#.{ { [ ] A D v v z k z b b x u t u x m a h j P P P P P P U P P P P P P P P ",
"! W E ! ! _ E 1 : , $ # g R j f i i 9 t i i C s.g.8.#.o.{ [ ] D [ D n A b l z x u u 6 6 x m a a B I J J P P P P P P P P J P J P ",
"m m m V S H M , - : - $ f C j f i i t 2 i i i ` s.s.8.{ { { { H H H n A b k u u t t t u c a a a B j J J P K J J J j J J J J j j ",
"$ # $ $ - ; > $ - : $ + * 3 3 2 * & & & * = & u 8.g.8.@.o.{ o.H H A Z Z b t t t - 1 u u x a a a a j J J j j j j j j f j j j j j ",
"# + # # # # # $ - : - # o X .     .     . . . . N g.s.o.{ { { o.{ A Z Z a t $ # - t k k a u p p p i i i p i i i p p p p a a j a ",
"X . X X X X X $ ; ; - # o .   .       . O O O o $ F 9.8.+.7.o.o.o.D Z c k t $ O 1 k a a a u p u > O O O O @ @ @ @ @ # & & & & * ",
": : , , > 1 > ; ; ; ; # + + o . % i B ~ 0.w.w.w.0.0.a.8.7.{ G { o.H D v k x : $ t x b x x a x t # o . .         .         .     ",
"k u t t u u u 6 ; ; $ # + # # 9 _ 4.4.t.l.H.P.I.P.L.M.8.H D x b { o.D v b k $ : t x N N M M H ~ R P J J h w = O     .   .     . ",
"5 8 5 t 5 8 8 3 $ : $ + . X i 0.4._ =.t.x.K.P.P.P.K.N.i.H b k t k  .o.A b x t u G S Z F $.=.0.w.0.0.4.4.5.w.=.P 9 . . . .     . ",
"t 5 t 5 8 8 5 5 , : $ X   d K.0.^ ) ` w.S.K.P.I.P.P.L.b.7.A b t t H o.H D c t b H G F F =.t.e.w.0.0.4.4.4.w.4._ P = . O o . o o ",
"y y y y 8 y t y t t : # i P.~.=.) ^ 0.t.S.S.H.H.K.K.m.M.8.D Z u t S 7.D H b u S  .H C F 0.t.t.r.0.0.4.4.5.4.` _ R j & & % % # $ ",
"y v y y y y y y k t t t l.^.I.0.` 0.w.m.S.H.H.c.m.m.H.N.7.H b b t k 7...G b u G  .H F H 0.w.0.0.4.4.4.4.` _ ^ Q R U q $ & & - & ",
"v v v v v v v z z y H S.W.P.w.4.w.l.H.H.J.J.H.H.H.H.m.N.a.X.Z Z x x 7.7.} H x N H G C C 4.4.4.=._ ) ^ ^ ^ R Q Q ^ ^ J & $ $ - - ",
"v y y z y y z y k ) K.W.P.w.0.w.x.K.L.P.L.L.J.H.N.K.m.N.f. .S F G u H 7.X.H N b H H S F =.=.=.$.) Q R P P P U C Q ( Q i # $ $ & ",
"v z y v z z k l <.R.!.P.e.5.e.Z.P.P.P.P.P.L.L.G.L.K.p.f.f.7.n G G x V 7.7.G S a M S F C ^ ( ( ( Q U P P P P P R ^ _ _ C = # $ $ ",
"v z y v z z Z j.!.!.K.e.5.t.Z.P.I.W.T.P.Y.L.L.P.Y.N.y.f.s.7.b Z C M H 0.7.7.S x a x M M C U C C C R C C P U C ^ ^ ` =._ g # $ $ ",
"z z y z t G S.~.!.K.e.5.e.Z.I.I.W.L.P.T.T.T.T.Y.T.Y.m.d.g.7.S N V N V 7.7.7.H G u t u N C P P C P P C R P C R Q ( =.0.=.^ * @ # ",
"z z z y W L.~.!.K.w.5.t.Z.I.I.I.W.T.R.T.R.T.R.T.R.Y.Y.N.M.a.H ) *.) C ~ 7.7.~ S u t u M N P P P C U R ^ Q U Q ( ` 4.0.0.4.j # # ",
"z z z *.R.~.!.K.w.w.e.Z.P.!.I.I.W.T.R.R.T.W.R.W.Y.P.M.f.d.y.~ H ~ Q C ~ 7.7.H C a u u N N C P C ^ ^ ( ) ) ^ ^ $.=.0.0.t.w.$.9 @ ",
"z v q.~.^.~.K.e.w.t.Z.P.I.I.!.I.T.P.T.W.R.T.T.T.W.N.u.{ 7.{ H m V C C 0.7.H H H V u a N N C C Q ) _ _ =.` _ ) =.0.0.w.t.h.0.P % ",
"S j.^.^.~.H.e.e.t.Z.P.W.I.W.W.W.T.W.W.W.W.W.T.W.W.Y.b.7.S N N C _ 5.e.r.0.7.H G H x u a a V P ( =.4.4.5.4.4.` 4.0.w.t.h.x.h.4.i ",
"F.^.^.~.H.e.e.h.Z.P.W.W.!.W.W.W.W.W.W.W.W.T.W.R.E.R.R.k.&.-.0.j.x.m.m.m.k.7.H G M a a a j C ) 4.0.w.w.w.w.w.4.0.w.w.h.l.x.x.w.Q ",
"/.^.^.H.e.w.t.Z.P.!.I.!.!.W.W.W.!.W.W.W.W.W.W.W.R.T.R.R.P.P.P.L.P.K.N.K.K.m.t.=.( w.w.w.t.t.t.t.t.t.t.t.t.t.0.w.t.t.l.x.c.S.l.0.",
"^.^.S.w.w.h.Z.P.!.I.!.!.W.W.!.W.W.W.W.I.W.W.W.P.R.R.R.T.P.R.P.P.P.P.P.L.P.K.P.m.H.S.S.Z.Z.x.x.l.x.l.t.t.t.t.w.w.t.j.x.c.S.H.S.t.",
"!.S.w.w.j.Z.K.!.I.I.W.I.W.W.I.W.W.I.I.W.I.I.W.W.P.P.R.T.P.P.P.K.K.P.L.K.K.K.K.K.H.S.S.S.S.Z.Z.x.x.x.l.l.x.l.j.w.t.l.x.c.S.H.H.c.",
"Z.w.w.t.Z.K.W.W.!.!.!.W.W.I.W.I.I.W.I.I.W.W.P.P.P.L.P.P.P.P.P.P.L.L.L.K.H.K.K.K.K.K.S.S.S.S.x.Z.x.x.x.x.l.l.l.t.j.l.x.c.H.K.K.K.",
"w.w.t.Z.K.W.I.I.R.I.I.I.I.I.I.W.W.I.I.W.P.I.P.P.P.P.P.L.P.L.N.K.K.K.L.K.H.K.P.K.K.K.H.S.S.S.Z.Z.S.x.Z.Z.x.x.x.j.j.x.x.S.H.K.K.K.",
"w.t.Z.S.I.W.I.W.R.I.P.P.I.I.I.I.I.I.I.I.W.P.P.P.L.L.P.N.L.P.m.K.K.H.N.K.K.m.K.K.K.K.K.S.H.S.Z.Z.Z.Z.S.Z.x.S.x.x.j.x.S.S.H.H.P.I.",
"t.Z.S.I.W.I.I.I.P.P.P.P.P.I.I.R.P.I.P.P.P.L.m.K.N.m.N.K.m.N.N.m.m.m.m.K.H.m.H.K.K.K.K.S.H.S.Z.S.Z.S.Z.Z.x.S.x.c.j.x.S.H.K.K.K.I.",
"l.S.P.W.P.I.I.P.P.K.P.P.P.I.I.P.P.K.K.K.H.N.H.N.K.K.m.N.m.m.m.m.m.m.m.m.H.m.K.H.S.K.S.S.H.S.S.H.S.S.S.x.x.S.x.x.l.x.S.H.K.K.K.P."
};
