/* XPM */
static char *moco05[] = {
/* columns rows colors chars-per-pixel */
"64 64 216 2 ",
"   c #03070E",
".  c #060B11",
"X  c #090E16",
"o  c #090F18",
"O  c #0C131B",
"+  c #0B1017",
"@  c #11161D",
"#  c #161A1F",
"$  c #0E1721",
"%  c #0F1823",
"&  c #121A25",
"*  c #131D2A",
"=  c #181E25",
"-  c #15212E",
";  c #1B232C",
":  c #1E2126",
">  c #172331",
",  c #192634",
"<  c #1C2836",
"1  c #1D2B3B",
"2  c #22262B",
"3  c #25262A",
"4  c #232B34",
"5  c #242E39",
"6  c #2A2E34",
"7  c #2C343D",
"8  c #27313B",
"9  c #363739",
"0  c #322F2E",
"q  c #443E39",
"w  c #49423C",
"e  c #202F40",
"r  c #233244",
"t  c #2C3642",
"y  c #253648",
"u  c #2A3A4C",
"i  c #2E3944",
"p  c #343B44",
"a  c #383F46",
"s  c #2E3E51",
"d  c #3C444C",
"f  c #39414A",
"g  c #334355",
"h  c #3B4856",
"j  c #2F4052",
"k  c #464749",
"l  c #554E47",
"z  c #59524C",
"x  c #444C54",
"c  c #464E57",
"v  c #4C5155",
"b  c #4A535B",
"n  c #46515C",
"m  c #585959",
"M  c #685A4D",
"N  c #665D54",
"B  c #705E4F",
"V  c #67625E",
"C  c #7A6653",
"Z  c #786756",
"A  c #4B5662",
"S  c #4E5A65",
"D  c #525E69",
"F  c #525B64",
"G  c #5A626B",
"H  c #5B6A78",
"J  c #676868",
"K  c #746C63",
"L  c #7C7269",
"P  c #636E7A",
"I  c #6A737B",
"U  c #767777",
"Y  c #846C56",
"T  c #876F59",
"R  c #8C7259",
"E  c #88705B",
"W  c #92765C",
"Q  c #95795E",
"!  c #997B5F",
"~  c #887869",
"^  c #967B62",
"/  c #9A7D62",
"(  c #947F6A",
")  c #8A7E72",
"_  c #9D8165",
"`  c #9C836B",
"'  c #96806B",
"]  c #8A8279",
"[  c #998978",
"{  c #A28366",
"}  c #A2856A",
"|  c #A5896D",
" . c #AB8B6C",
".. c #B08F6E",
"X. c #B2906F",
"o. c #A38C75",
"O. c #AA8E72",
"+. c #A18D79",
"@. c #AD9175",
"#. c #AC947B",
"$. c #A5917D",
"%. c #B49373",
"&. c #B99674",
"*. c #BC9976",
"=. c #B2967A",
"-. c #B4997D",
";. c #BC9C7B",
":. c #C19E7A",
">. c #C4A17D",
",. c #5F6F80",
"<. c #647383",
"1. c #6C7C8B",
"2. c #6A7885",
"3. c #747E88",
"4. c #7A838B",
"5. c #748494",
"6. c #7B8C9C",
"7. c #798896",
"8. c #6F8091",
"9. c #7F90A1",
"0. c #7D8FA0",
"q. c #888886",
"w. c #999188",
"e. c #848B91",
"r. c #959797",
"t. c #92908C",
"y. c #AE9A84",
"u. c #A79787",
"i. c #B49C83",
"p. c #B99E81",
"a. c #B29F89",
"s. c #A49E96",
"d. c #BDA185",
"f. c #B5A18B",
"g. c #BBA48B",
"h. c #AAA297",
"j. c #B9A692",
"k. c #BDA993",
"l. c #BCAC9B",
"z. c #B4A696",
"x. c #8293A4",
"c. c #8798A9",
"v. c #8B9CAC",
"b. c #8797A6",
"n. c #939CA3",
"m. c #8D9FB0",
"M. c #9AA2A8",
"N. c #8FA1B2",
"B. c #92A4B5",
"V. c #97A9B9",
"C. c #A9AAA8",
"Z. c #B4ADA3",
"A. c #B9B2A8",
"S. c #B8B9B6",
"D. c #ABB1B2",
"F. c #9FA19D",
"G. c #C5A483",
"H. c #C8A886",
"J. c #C2A68A",
"K. c #C4A98C",
"L. c #CAAB8C",
"P. c #C7A785",
"I. c #C4AD93",
"U. c #CAAE91",
"Y. c #C2AF99",
"T. c #CDB294",
"R. c #C5B29C",
"E. c #CBB59B",
"W. c #CFB89E",
"Q. c #C7B096",
"!. c #D0B699",
"~. c #D3BA9D",
"^. c #D0B496",
"/. c #C4B5A4",
"(. c #CDB9A3",
"). c #CBBCAA",
"_. c #C7B8A5",
"`. c #D3BDA3",
"'. c #D2BFA8",
"]. c #C3BEB4",
"[. c #CEC0AD",
"{. c #D6C0A6",
"}. c #D8C1A6",
"|. c #D5C2AB",
" X c #DAC6AC",
".X c #DCC8AE",
"XX c #C9C3B8",
"oX c #D4C6B3",
"OX c #DDCBB4",
"+X c #D5CBBC",
"@X c #DCCEBA",
"#X c #D7C8B3",
"$X c #DED1BD",
"%X c #E0CFB7",
"&X c #E1D2BC",
"*X c #B8C0C2",
"=X c #C8C9C5",
"-X c #D3CEC3",
";X c #DDD4C4",
":X c #D5D4CB",
">X c #CCD4D6",
",X c #CFD7D8",
"<X c #D1D6D5",
"1X c #D4DAD9",
"2X c #DADEDA",
"3X c #DADBD4",
"4X c #CED0CA",
"5X c #E2D6C2",
"6X c #E3D8C6",
"7X c #E4DCCB",
"8X c #E5DFD0",
"9X c #DEE1DB",
"0X c #E6E1D4",
"qX c #E4E5DC",
"wX c #E8E8DE",
"eX c #EAEAE0",
/* pixels */
"2 6 6 a k J S.q.. . % g G G D n c d f t 7 7 8 8 f 4 2 6 a G 4.I 5.9.v.9.9.9.6.7.9.V.V.N.<.A 2 # % - % % $ % * * * * * - - - : - ",
"k F U e.D.:XeXU   . % t A S S A c d f t 7 r 8 7 7 < : 9 d P 8.G 8.5.b.b.c.9.0.7.0.N.V.B.5.H 7 : @ - * % $ $ % % % % * - - - - ; ",
"D.4XqXwXwXwXqXJ   . $ r h S S S v d i f t 7 7 f 9 ; : a v I 8.I I 6.b.v.c.c.9.6.6.v.B.V.9.P n ; @ O - $ $ $ $ $ $ % % * & * - - ",
"eXeXwXwXwXqXqXm   . O < f h S b h f f 7 f x c b f 8 0 v G 8.7.8.2.8.9.v.v.0.9.6.5.0.N.V.N.5.F 7 : O * $ O O $ $ O $ % % % % % # ",
"wXwXwXwXwXwX9Xk   . X - u h c b c d k b 4.S.XXXXC.Z.h.4.7.6.7.8.8.8.9.v.B.N.9.0.5.6.0.B.B.0.S n ; @ & - O + O O O O O $ @ % % - ",
"wXwXwXwXwXwX:X9   . . - 7 f h n h b r.A.@X7X7X7X7X0X0X7X:XS.b.7.8.8.6.v.v.N.v.9.6.1.8.9.B.N.<.h p ; + - % O O O O O O O O O % @ ",
"wXwXwXwXwXeXXX6 . . . : 5 k m U U s.;X7X6X6X7X7X8XqX8X0X8X8XXXb.5.8.8.0.9.N.B.9.9.8.<.5.N.V.9.A c ; @ & * O X X o X O O O O O % ",
"wXwXwXwXwXeXD.4 + O : f V U w.h.[.[.$X6X6X6X6X8X8X8X8X7X8XqX0X4XC.F.n.6.9.B.V.B.9.5.<.<.0.B.V.1.k f : X - + X X o o X O $ O @ % ",
"wXwXwXwXwXeXF.6 2 a Z ] [ u.a.k.[.|.OX$X&X&X&X6X8X7X7X7X7X8X8X8X+X].D.n.9.v.N.B.b.0.8.P 8.9.V.B.b v 4 O O % X X . o X X X O O @ ",
"wXwXwXwXwXwXt.p z ~ +.[ $.y.y.R.{.[.OX$X&X&X&X&X6X6X&X7X6X7X8X8X7X+XXXA.C.F.m.B.B.b.6.1.,.5.9.B.x.c d : O % O X .     X X X O O ",
"wXqXwXwXwXqX] V [ [ [ o.$.#.R.R.E. XOX$XOX%X%X&X&X&X6X&X6X6X7X8X8X;X[.[.A.A.C.M.N.N.9.9.,.1.5.c.V.7.m 6 + O O X . . . . . X X O ",
"wXqXqXwXwX9Xt.w.+.' $.f.i.f.W.[.{.OXOXOX%X%X.X%X&X&X6X&X&X&X&X7X8X8X[.W.[._.A.C.V.B.N.9.8.H 1.6.N.V.4.f : O % + . .   . . . X o ",
"9XqXqXwXqX:Xa.$.` o.u.j.f.-.k.Y.E.}.{.{..XOX.X.X%X&X&X&X&X&X&X&X7X&X{.E.W.[.E.A.C.V.B.c.x.1.,.1.5.0.v.I : + O O . . . . . . X X ",
"9XqXqXwX9XXXu.+.$.a.u.g.-.d.f.=.O.=.d.K.}..X.X.X%X%X&X&X6X&X$X X|.!.K.{.|.E.W.l.l.M.N.N.c.6.<.H H <.b.x.f # O % + . . . . . . . ",
"9XqXqX9X<XA.y.#.$.y.f.-.@._ W R W | =.E.}.|.|.`..X%X6X8X6X$XOXoXW.L.L. X X|.E.[.A.l.v.m.m.9.6.2.H D 4.v.I : @ O @ X   . . . . . ",
"9XqX9X9X<XXXa.#.#.f.-.#.O._ R C Y _ T o.-.g.H.L.~.{..X&X$XOXoXE.I.d.K.OXOX.X XE.(.A.F.6.N.B.N.9.8.<.H 0.6.9 @ @ - X . . .   . . ",
"9X9X9X9X<Xl.a.y.-.=.#.%.#._ W Z M q # M _ O.;.;.;.%.=.;.f.$.#.[ i.K.{.|. X X X`.E.(.Z.4.6.N.V.N.c.6.H 1.x.m & # ; # . . . . . . ",
"9X9X9X9X+Xh.y.f.f.O.| $.f.O._ M z 0 X : M  .d.g.d.| T l 9 0 ' O.=.T.T.!. X}.!.`.T.T.A.r.1.0.B.B.N.c.8.H x.7.4 @ * % X . . . .   ",
"9X9X9X9XXXz.f.j.=._ ' O.-.#.Z B z l : # z ` k.l.g.O.M 3 @ # M ' =.Q.L.T.~.^.E.L.J.I.k.M.x.2.6.c.B.B.9.1.8.9.v O + O o . . . . . ",
"1X9X9X9X4Xz.-.f.#._ _ _ #.@.C N z C Q L ' -.Q.`.-._ M 3 @ q R _ -.`.L.~.U.^.J.H.;.=.-.r.m.b.1.7.N.N.B.8.1.x.I : X @ O .   . . . ",
"1X9X1X1X=Xr.=.#.=._ Q Q ' =.C E o.f.y.Y.;.K.|.|.Y.` Z B Z _ $.` +.I.W.~.>.;.%.;.*.{ ^ q.r.F.r.e.b.B.V.7.8.6.5.d + O O . . . . . ",
"1X1X1X9X*XU ` |  ._ _ _ E @.E o.k.I.l.U.g.E.{. X|.I.d.g.y.g.y.y.j.T.L.L.%.Q R  .| ! W +.f.j.j.f.j.l.l.r.F.h.r.U 9 ; & X . . . . ",
"1X>X1X1XD.b z _ _ _ _ { W ' ' -.k.R.l.U.g.E.W.(.E.E.g.k.I.l.g.l.f.L.J.;.} ! Y R R T / #.d.g.H.J.K.E.{.{.E.Y.k.k.z.+.V q @ .   . ",
"<X,X1X1Xv.f ; 0 z R R R Y T | -.f.g.R.{.k.u.#.#.f.d.d.d.g.d.f.g.#.%.-.#.{ R T C B Y { @.-.d.L.L.E.`. X X}.!.~.{.{.(.[.f.) q + . ",
">X>X1X>X4.8 - O @ 0 z C C C _ #.k.E.(.R.~ 9 w z Z =.-.f.g.g.a.[ ` { W R Q T C C Y !  .%.>.H.L.L.^.!.~.}.}.}.}..X.X.X.X~.Q.a.L z ",
">X>X,X=XG < - + + + # 0 w l z V u.R.I.k.K @ @ + w O.=.=.-.| $._ Q W R Y C B C R ! ..&.;.:.>.P.L.L.^.!.~.~.!.~..X X~.~.`.~.{.[.R.",
">X>X,X*Xc ; % + @ + @ # ; 4 8 x w.z.k.d.' 3 . : B R _ | } Q { C R Y C B C Y R W { *.*.&.;.>.H.^.^.^.!.!.^.^.^.~.}.~.~.`.{..X X{.",
">X>X,XD.7 - @ O + + @ - > 5 6 7 v h.R.I.d.' B C R R R T W W Y B C T R R T R R !  .&.&.-.:.>.H.U.^.L.L.H.L.>.>.T.!.{.`.~.~. X X{.",
">X>X9Xr.; & O O + @ @ - - > , 8 6 J A.[.R.g.-.@.W Y C C R C C C Y R Q Q Y ! ! _ %.*.;.>.>.G.L.U.L.L.H.H.H.>.>.H.^.^.H.^.~.T.!.~.",
",X9X9X4.; % O O O # : ; < ; 5 5 9 J A.[.W.l.k.;.{ ! W W T C R R R Q | _ ! {  ...%.;.H.;.>.H.H.L.^.H.H.>.>.>.>.H.L.P.L.U.H.P.L.!.",
"9X9X9XJ - % O O & & - ; 5 4 5 5 b r.[.XX[.R.R.g..._ _ Q Q Q W W W {  ._ { @.:.&.;.%.G.J.H.L.>.;.P.P.H.>.>.H.>.>.:.&.>.P.H.H.P.L.",
"9X9X1Xb : @ O @ @ : ; 4 5 6 5 f U S.+XoX{.E.k.=.d.=.|  .%. ._ ! { :.=._ %.#.G.;.-.%.-.H.I.L.>.{  .:.:.&.*.&.*.X...&.>.*.P.>.>.>.",
"wXwX3Xv = O O & = ; 5 8 5 5 8 7 q.-X+X+XoXU.p.=.k.I.k.K.J.%. .| *.H.d.%.g.d.k.(.I.j.J.L.G.G.J.&.X...:.%.....X.X.X.X.:.&.:.:.:.H.",
"wXqX<Xk & @ @ = ; 4 t i i t i 6 q.].oX+XoXR.I.R.E.I.`.E.J.=.=.@.g.p.| -.g.k.I.W.E.I.Y.`.K.i.p.X.%. . .%.&.:.:.:.:.:.:.:.:.>.H.H.",
"wXwXXXa & @ = - , 8 i i a a i 7 s.:XoX;X;XOX#X#X|.|.'.W.p.J.I.=.j.k.i./.g.Y.E.E.(.T.J.I.I.;.*.X.&... .:.P.:.:.:.:.:.:.>.P.H.P.U.",
"+XwXC.6 = : 2 8 8 p f a a s 7 k m C.#X5X5X#XOX X(.W.`.U.d.(.(.g.Q.k.f.l.l.k.R.Q.E.K.J.p.a.=.%...X.;.H.T.^.^.L.>.:.:.L.L.H.>.P.P.",
"_ k.] < < t p h h h x h f g p k X V ).;X8X X|.&X|.`.`.J.I.'.(.I.k.a.i./._.l.z.j.l.a.-.=.O.i.| | -.J.!.!.~.}.^.L.!.U.T.G.P.H.U.T.",
"R ! z 8 a n S H D b c c c x k 3   3 w.;X6XOX X@X`.T.U.J.`.W.).R.k.f.a._.XX/.l.l.Y.a.@.O.O.@.} } J.U.U.^.^.~.~.~.!.H.H.G.G.G.H.J.",
"Q W v d F H ,.H S A A A n d k X 6 k t.;X%X&X&XOX.XE.-.I.#XE.g.k.I.k.h.f./._.l.j.a.p.=.| o.} ` =.U.T.U.H.~. X^.~.!.:.;.-.H.T.J.p.",
"*.&.m G H <.H H S F 4.2.4.] ] K s.A./._.#X5X%X#X|.@XT.|.OXI.g.l.f.y.f.u.l.A.l.y.y.j.y.o.o.[ u.).`.T.!.U.`. X^.^.!.-.X.X...p.U.p.",
"L.L.m S G G D D 2.C.=X)././.f.i.g.k.k.j.(.5X&X`.|.&X`.T.`.E.I.Y.f.[ o.u.z.l.z.a.u.u.[ y.w.( [ ).I.T.`.L.J.^.^.p.^.^.U.L.G.-.G.J.",
"$X;XJ d n S 4.n.C.+X@X(.k.I.I.i.i.i.a.i.I.@X&X XOXOXT.T.T.`.E.f.' ~ ~ [ u.s.s.a.u.[ [ [ ] E K a.Y.Y.!.U.U.L.;.;.L.U.U.U.I.i.p.U.",
"0X0XV 9 h I XX;XOX`.W.E.(.a.i.f.R.j.f._.#X%XOXOX5X`.~.~.W.R.'.a.~ Z C ~ [ u.u.w.w.w.w.L L K m ] A.E.p.I.H.J.;.J.!.I.J.I.J.J.Q.Y.",
"wX3Xm f J C.;X$X XT.g.k.-X_.'.|.#X@X;X$X&X&X.X X&X@XOXY.I.'.oXy.T ~ E Y K ) w.) ~ ) ) L K ~ N ~ z.l.I.I.K.L.J.p.J.=.=.G.p.=.a.i.",
"+X[.l v XX8X&X.XE.J.g.f.+X;XOX#XoXOX&X&XOXOXOX XOX.X X`.E.l.z.f.) B Z Z l f N U U ) U K J K Z K u.l.A.W.K.E.`.J.G.J.G.G.p.-.@.} ",
"[.f.k e.qX6XOX`.T.i.#.y.;X@XoXl.(.oX6X&X`.(.`.|.#X~.^.T.E./.+.a.] N N J F J 3.e.5.3.2.J ) Z ~ ) w.h.z.l.K.!.`.!.;.;.;.G.G.O.` ( ",
"W.k.h.3X0X6X@X`.'.y.' _.+X_.w.~ q.q.r.t.u.w.u.l.E.R.E.'.j.).I.a.[ J m J I 3.5.5.1.<.P U [ y.z.Z.f.h.s.h.Y.E.'.}.`.J.H.`.'.p.( ( ",
"E.W.;X&X$XOXE.w.] J q.C.z.q.x 6 < ; > > 5 5 7 v J Z ] [ Z._.Y.o.N x b F F F D H P P H 7.C.A.Z.Z.C.r.q.t.s.(.`.}.`.`.`.}.%X!.a.y.",
"E.@X7XOX.XE.+.V z v t.G G r , > - - - * % * % % * * , 5 v q.w.k 9 9 d F S S G H H <.<.H 7.e.e.e.3.e.I I 4.Z.|.OX`..X XE.}.I.J.I.",
"`.;XqX$XoXZ.L z m m n 8 1 1 < - - - - % * % % % $ o $ * * 1 8 @   & 4 f G 1.6.6.5.5.5.5.7.3.P D G I S 6 f t.XXOX}..XOX@X#X`.|. X",
"U.$X;X[.A.w.m k p r r r r 1 , , > > - - * * * % $ o . X O $ % * & O $ - g H 2.1.2.H D h 7 = O + 4 e.C.J v q.).OXOX X&X5X;X)._.).",
"U.l.+XR.w.] 9 5 8 r r y r 1 < , - - * * - * * * % o X   . + o o * > * & & * * > > * * & & $ 7 I r.].;X+XR./. X`.^.L.T.I.a.u.) U ",
">.] :X[.w.v 1 r y y y y 1 1 , - % % $ $ o $ o $ $ $ $ . . . o o . & > > * * % * * - * * i D r.:X7X8XOX X`.`.`.`.G.d.#.] k 9 # X ",
";.V h.F.G y r r u y r 1 1 1 - , - * % % % $ o o . X o $ O . . . . . O * , , * % % & - 1 c P q.XX5X5X%X~.!.%X0X-Xw.z k k ; O $ O ",
"-.l k v h j u y y r 1 , , , , - > - - - - * % % $ o . X $ o . . . . . % - , , , * $ < U C.A.Z.oXOXOX%X XE.+X8XA.9 O $ $ % % * * ",
"$.l d v h j j j y e 1 , , , , , > - - - - - * % $ o o o . o $ . . + . + % > , 1 1 & t q.XX5X&X&X&XOX.X|.`.A.r.c + X O % % % * * ",
"o.z n g g j j j u r e r e 1 1 1 > > 1 > > - - % % $ O o o . o O . . o o $ & > 1 e 1 , U |.OX+X6X;X|.$X-Xw.4.a o . O % * % $ $ % ",
"%.F n j g j y u y r r y r e 1 1 1 , 1 > > > - % % $ $ O + . . . O . . + $ & * > e e 1 b l.|.@X;X).l.XXXXU c 4 o $ * % * * % $ % ",
"-.S g j j j j y y y y y r e 1 1 1 , 1 , > , - * % % $ $ O o . . + o . . $ & * % , e e y s.u.s.A.h.4.I G 3 6 & $ * * * * * % % % ",
"L g j j j j j y y y y r r e 1 1 , 1 1 1 , > - - & % % $ O o . . . o . . . o $ o $ 1 , < x t f d 7 & O . + * * * * > > > , , > > ",
"x g g g g g j j y y r r r e 1 1 , 1 1 1 , > - * & & $ $ $ o . . . . . . . . . . + & O o o o O o X O & * > - * * > , 1 1 , , , > ",
"h h g g g g j j y y r e e 1 1 , , > > , > - * * & $ $ $ O O O o . . . . . . . . . O . . . . . $ & & * & % $ * - , > > * & * & * ",
"h g g g g j j y r r e e 1 1 , , > > > > > * * & & $ $ o O o o O O . . .   . . . . o . .   + % O + + O O * - , > * $ * * - , , > ",
"n g j g g j y y y e 1 1 1 1 , , > > > > - - * * $ $ $ $ O o o o o + . . . . . . . . . . . $ + . . $ & > 1 > - % $ * , , > , , , "
};
