/* XPM */
static char *moco01[] = {
/* columns rows colors chars-per-pixel */
"64 64 220 2 ",
"   c #1D1C1F",
".  c #1F1D20",
"X  c #201E22",
"o  c #242224",
"O  c #292527",
"+  c #2A2629",
"@  c #2D292B",
"#  c #322D2D",
"$  c #332F30",
"%  c #3C2631",
"&  c #353132",
"*  c #3A3434",
"=  c #3E393A",
"-  c #3B3638",
";  c #322E30",
":  c #433C3B",
">  c #463B3A",
",  c #4C423E",
"<  c #47403E",
"1  c #443F41",
"2  c #4B3E41",
"3  c #6E374F",
"4  c #4B4543",
"5  c #4B4546",
"6  c #524642",
"7  c #544A44",
"8  c #544D4D",
"9  c #5A4D48",
"0  c #5D524B",
"q  c #5B5454",
"w  c #565152",
"e  c #564F51",
"r  c #62554C",
"t  c #68584E",
"y  c #645954",
"u  c #6B5C52",
"i  c #655B5A",
"p  c #735D57",
"a  c #654A51",
"s  c #6E625C",
"d  c #736155",
"f  c #7C6659",
"g  c #7D6A5B",
"h  c #776659",
"j  c #775562",
"k  c #6B6463",
"l  c #6B6465",
"z  c #726B6B",
"x  c #786A63",
"c  c #7C726B",
"v  c #7D7573",
"b  c #A63A6C",
"n  c #A93E70",
"m  c #923C61",
"M  c #836D5D",
"N  c #86695F",
"B  c #86725F",
"V  c #89745F",
"C  c #92556F",
"Z  c #A3456D",
"A  c #AA4774",
"S  c #B0487C",
"D  c #AA5779",
"F  c #B0567F",
"G  c #856C64",
"H  c #847362",
"J  c #8B7462",
"K  c #8C7963",
"L  c #88776B",
"P  c #937C65",
"I  c #927D6B",
"U  c #997B68",
"Y  c #896874",
"T  c #847C7B",
"R  c #887976",
"E  c #937476",
"W  c #A2697D",
"Q  c #958167",
"!  c #95826A",
"~  c #9B846A",
"^  c #9E896D",
"/  c #958472",
"(  c #9C8A74",
")  c #9A8978",
"_  c #8B817C",
"`  c #A1856C",
"'  c #A38C6E",
"]  c #A6906F",
"[  c #A8916F",
"{  c #A38E72",
"}  c #A58E76",
"|  c #A69173",
" . c #AB9473",
".. c #AF9875",
"X. c #A5927C",
"o. c #AA957B",
"O. c #AE997B",
"+. c #B49B76",
"@. c #B39C7B",
"#. c #B99E79",
"$. c #B49B77",
"%. c #BCA37B",
"&. c #B8A07A",
"*. c #C0A67C",
"=. c #C2A97D",
"-. c #AB5981",
";. c #B75986",
":. c #9B7985",
">. c #9B6983",
",. c #AA6A87",
"<. c #B4698B",
"1. c #AB778A",
"2. c #B6768A",
"3. c #BD6992",
"4. c #B77894",
"5. c #AD7C90",
"6. c #C25E94",
"7. c #C36196",
"8. c #C66D9C",
"9. c #C46699",
"0. c #C4779A",
"q. c #CB77A3",
"w. c #8C8585",
"e. c #998A87",
"r. c #9C928C",
"t. c #9C9392",
"y. c #A69483",
"u. c #AC9984",
"i. c #AB9B8B",
"p. c #A89586",
"a. c #B29D82",
"s. c #B19E8A",
"d. c #B99E82",
"f. c #B78896",
"g. c #A69A99",
"h. c #B6989A",
"j. c #AE8391",
"k. c #B6A183",
"l. c #BCA583",
"z. c #B5A28B",
"x. c #BAA58B",
"c. c #BDA98D",
"v. c #BFA884",
"b. c #BDAB92",
"n. c #B8A693",
"m. c #AEA198",
"M. c #BA98A2",
"N. c #BE8CA3",
"B. c #B8A9A7",
"V. c #BCB1AD",
"C. c #BBB4B2",
"Z. c #ABA4A2",
"A. c #C48699",
"S. c #C6979E",
"D. c #C4AC84",
"F. c #C4AE8B",
"G. c #C0A78D",
"H. c #C7B18C",
"J. c #C8B28D",
"K. c #C2AE93",
"L. c #C3AE9B",
"P. c #C9AD94",
"I. c #C5B194",
"U. c #CAB593",
"Y. c #CCB896",
"T. c #C4B39B",
"R. c #CAB69B",
"E. c #CDBA9B",
"W. c #D0BD9E",
"Q. c #C986A4",
"!. c #D186AD",
"~. c #C798AA",
"^. c #D697B6",
"/. c #D194AF",
"(. c #C9A6AA",
"). c #CDBBA2",
"_. c #C9B4A7",
"`. c #D1BEA2",
"'. c #D3BDAB",
"]. c #D2B5A9",
"[. c #CBA6B2",
"{. c #D4A8B7",
"}. c #C7BAB7",
"|. c #D4B8B8",
" X c #D1A4AE",
".X c #D3C2A5",
"XX c #D6C5AA",
"oX c #D8C6AE",
"OX c #D9C9AE",
"+X c #CBC2BD",
"@X c #CAC0B9",
"#X c #DACBB3",
"$X c #DCCEBA",
"%X c #D7C4B6",
"&X c #DED0BE",
"*X c #DDAAC2",
"=X c #DCBAC3",
"-X c #E1B9CA",
";X c #E0AFC5",
":X c #CDC6C2",
">X c #D8C9C5",
",X c #DFD2C1",
"<X c #DAD2CD",
"1X c #DED5D1",
"2X c #E2CDCD",
"3X c #E1C9C9",
"4X c #E0D4C5",
"5X c #E2D6CB",
"6X c #E3D8CE",
"7X c #E6CDD4",
"8X c #E5D4D3",
"9X c #E5DBD4",
"0X c #E7DDD8",
"qX c #E9DEDC",
"wX c #E8D6D9",
"eX c #EAE2DD",
"rX c #EBDFE0",
"tX c #ECE5E2",
"yX c #EDE8E4",
"uX c #F0EAE7",
/* pixels */
"tXtXeXeXeXeXeXeXeXeXeXeXeXeXeXeXeXeXyXyXeXeXyXeXyXeXyXyXtXeXeXyXuXi.& V.yXyXyXeXtXtXyXyXyXqX-X8.6.*XrXyXyXyXrXtXrXrXrXrXrX-X8.9.",
"eXeXtXeXeXeXeXeXeXeXeXeXeXeXeXeXeXyXeXeXyXeXeXeX9XeXeX9XeX0X6X0XeXr.q +XyXyXeXyXtXyXtXyXyXyXwX!.6.^.rXyXyXtXyXrXrXyXtXrXrX;X8.9.",
"eXeXeXeXeX0XeXeXeXeXeXeXeXeXeXeXeXeXeXyXeXeX9X9X6X9X9X6X9X6X6X6X5X&X@X9XeXyXyXyXtXyXyXyXyXtX7Xq.7.q.rXyXyXyXyXrXrXrXyXtXrX^.q.9.",
"eXeXeXeXeXeXeX0XeXeXeXeXeXeXeXeXyXeXeXeXeX9X6X5X4X6X5X4X4X4X4X4X5X4X,X9XeXeXeXeXtXtXtXyXyXyX7Xq.7.8.wXyXyXyXyXyXyXrXrXrXwX^.q.8.",
"eXeXeXeXeXeXeXeXeXeXeXeXeXeXeXeXeXeXeXeX9X9X5X,X,X4X4X4X,X,X,X,X5X,X,X6X6X9XeXeXtXtXtXyXyXyXwX!.7.9.7XyXtXyXtXtXtXtXtXtX7X!.q.q.",
"eXeXeXeXeXeXeXeXeXeXeXeXeXeXeXyXeX9X6X6X5X5X,X&X&X&X&X&X$X$X$X#X&X&X,X&X,X6X9XeXtXtXtXtXyXrX7Xq.7.7.-XyXtXyXyXtXrXtXrXrX7X!.q.q.",
"eXeXeXeXeXeXeXeXeXeXeXeXeXeXeXeX9X9X6X4X,X,X&X$X#X$X#X#X#XOX#XOX#X&X&X&X,X6X,X9X0XtXyXyXyXyXwX!.7.9.-XyXyXyXtXtXtXtXrXrX7X*Xq.q.",
"eXeXeX0XeXeXeXeXeXeXeXeXeXyXeXeX9X4X,X$X$X$X#XOXOXOXOXOXOXOXOXOXOXOX&X&X&X,X,X6X9XrXrXrXyXyXyX*X7.9.7XuXyXtXyXtXtXrXrXrX7X;X^.q.",
"eXeXeXeXeXeXeXeXeXeXeXeXeXeXeX,X&X$X#XOXOXOXOXXXXXXXXX.X`.`.W..XXXOXOXOX#X&X&X5X6X0X0XyXyXyXyX-X9.8.wXyXtXyXyXtXrXtXrXrXwX=X^.q.",
"eXeXeXeXeXeXeXeXeXeXeXeXeXeXeX&X$XOXOXOX.XW.W.W.W.Y.Y.Y.Y.Y.Y.W..X.XXXOXOXOX$X&X5X6X0XeXtXyXtX{.7.!.rXyXyXyXtXtXtXrXrXwXwX=X{.!.",
"eXeXeXeXeXeXeXeXeXeXeXeXeXeX&X#XOXOX.XW.Y.W.Y.Y.J.J.J.J.J.J.J.Y.E.W.W..X.X@X#X$X4X6X9XeXtXyXeX^.7.^.yXyXyXyXtXtXrXtXrXrXwX3X{./.",
"eXeXeXeXeXeXeXeXeXeXeXeX9X1X$XOXOX.XW.Y.J.J.J.J.J.J.J.D.D.H.J.H.Y.Y.E.E..X.X.X#X&X,X6X6X0XtX8X*X!.-XyXyXtXtXtXeXrXrXrXrXqX7X|.[.",
"eXeXeXeXeXeXeXeXeXeXeXeX,X$XOXOX.XW.Y.Y.J.H.J.H.D.H.H.H.J.J.H.H.v.U.Y.Y.E.W..XXXOX&X4X5X6X0X1X=X*XwXeXeXeXeXtXeXeXqXwX0XwX8X=X X",
"tXeXeXyXeXeXeX9X9X9X&X,X&XOXOX.X.XW.W.Y.J.J.H.H.D.D.=.=.D.H.H.D.J.J.c.J.J.b.T.)..XOX&X4X5X4X5X,X3X6X0X0XqX9X0X0X9XqXeXqXwX9X2X{.",
"yXyXeXeXeX9XeX6X&X&X#X#XOXXX.X.XW.W.Y.Y.Y.H.D.=.=.=.=.=.*.*.=.=.%.%.J.c.v.c.b.E.R..X$X&X,X&X#X&X&X4X4X5X9X9X9X9X9X0XqXqXqXwX7X|.",
"yXeXyXeXeX6X,X&XOXOX.XOXOXW.W.W.W.Y.Y.Y.Y.=.=.=.=.=.=.=.*.*.*.*.%.%.v.c.&.x.b.Y.b..X@X$X,XXX.XOXOX#X#X$X$X4X5X5X6X8XwXqXqX8X8X3X",
"tXeXeX0X9X1X#XoX.XW.W..X.XW.E.).E.U.U.E.J.=.=.=.*.*.*.#.#.#.#.+...[  .$.$.@.k.x.b.b._.#X#XT.P.`..X.XXXoXoX#X$X,X,X2X6X9XwX8X8X3X",
"yXyXeX8X,X#X.XE.E.J.J.E.W.W.E.E.E.U.U.D.%.+.&.%.*.#.#.$.+.+. . .' ` P ~ ' | $.x.c.n.b..XOXR.l.I.Y.E.`.XXOX#X#X$X$X$X3X5X8X8X8X2X",
"0XeX8X,XoXE.Y.Y.H.D.D.U.E.E.E.E.E.U.H.&.` U ' +.D.*.$.$.[  .[ ' ' U V N g P ' @.z.z.n.I..Xc.%.D.P.E.`.oX#X#X#XoX'.%X$X3X6X8X8X2X",
"{.7X,XXX`.U.U.F.H.D.%.&.F.Y.I.I.E.I.| g M N ~ ..d.D.#...' [ [ [ [ P u > # & r ' @.a.z.c.R.k. .*.D.Y.`.`.OX#XoXoX'.'.|.$X3X8X2X2X",
"8.{.'.W.P.F.P.U.Y.J.#.$.F.G.k.F.J.P > O O 9 U  .l.l. .[ ] &.%.+.` M >   X X o p | k.z.z.c. . .#.F.U.E.`.XXoX#X&X#X#X'.oX%X3X3X2X",
"0.S.P.P.D.U.W.W.`.U.%.%.G.a.O.O.O.> O @ X @ N ` d.F.F.#.%.U.I.l.U a O . o o X 7 ! | s.k...'  .D.U.E.)..X.X.X%X#XoX'.'.'.oX%X3X2X",
"S.P.J.D.U..X.X.X.XY.&. .@.a.[ ..{ 7 , > O O t U #.U.E.U.E.E.H.l.~ t @ X O o X > B K | O.O.' ..D.Y.)..XXXXX.X)..X'.`._.'.'.'.'.>X",
"].P.H.U.`.`.`.XX.XU.%.{ @.@. .$.Q > & # O % V #.H.E..XE..X.XE.Y.F.o.! V t > O > P K P | +.[ [ &.P.E..X.X.XoX.X).`.'.`.`._.].|.%X",
"Y.P.P.W.`.Y.`..XW.J.=. . .+.[ [ ' 6 * , V ' *.=.=.W.OX.X.X.XW.Y.E.W.W.W.D.I 4 h P P K ` [ [ [ #.b.T.T..X).)..X.X).).R.R.R._.|.|.",
"P.P.E.W.W.W.W.Y.Y.D.=.[ ' [ [ ' @.o.} +.*.*.*.*.=.Y..X.XW..XW.Y.U.J.J.U.E.c.@.} P P ~ ' '  .+.&.H.Y.R.E.).).)..X`.).T.L.L.L.'.'.",
"P.E.Y.Y.Y.Y.Y.J.H.=.=.[ ` ' ` +.D.Y.J.D.*.*.*.*.D.H.Y.Y.Y.E.Y.J.J.H.D.H.Y.W.E.F. .Q ^ ] ' .. .%.H.I.U.I.R..XE.R.R.E.T.).L.L._.|.",
"E.Y.P.P.J.Y.J.J.=.*.*...' [ &.J.Y.Y.D.=.*.*.#.%.*.&.+.+...a.%.=.*.%.*.D.D.I..XXXH. .| ] ' [  .%.H.H.I.I.I.R.T.I.L.T.R.R.L.K._._.",
"R.P.J.H.J.F.H.D.*.#.%.[ `  .H.U.J.H.=.=.*.%.+.%.' f , , , r 0 V ' ] %.%.v.H.U..X.Xc.&. .] ..&.%.v.v.c.c.c.U.I.b.b.c.b.K.K.b.(._.",
"P.U.U.H.H.H.J.D.*.%.+.' ' *.J.J.D.D.=.*.*.[ [ +.u > * # @ O X < V ] &.%.D.H.H.Y.OXOXY.&...&.%.c.v.v.l.H.x.I.T.I.b.b.T.F.k.z.n._.",
"U.U.U.H.D.F.H.D.=.*.+.[ +.J.U.J.=.H.=.*.' U [ +., o X X o X X O g [  .%.J.Y.J.D.W.$X#XH...&.%.v.v.%.&.x.x.k.z.x.c.b.b.z.O.s.(.}.",
"U.Y.U.P.D.D.D.H.D.=.*.+.=.Y.Y.D.H.=.=.+.` ' [ #.h # X X X X X O M Q ` +.D.Y.Y.Y.W..XXXc.{ ..&.v.&.&.k.@.l.a.O.@.k.x.a. .| i.].>X",
"I.U.U.H.D.D.D.=.=.*.*.&.D.W.W.U.D.*.+.U U `  ...Q , o X X X . > B P [ +.#.%.U.Y..X.XXXY. .| ..+.&.+.@.O.O.k.o.] ]  .o.} ' n.<X8X",
"F.I.H.H.D.D.%.=.=.*.*.+.%.Y.W.Y.D.*. .` U ` [ ` | , X X X . @ u V ~ [ [ ....=.U.Y.Y.Y.v.| ] ] ] ....O...O.O.o.Q Q ! ~ ~ y.}.<X8X",
"U.H.I.J.H.D.%.%.%.*.%.&.+.D.W.W.J.=.#.+. .$.' `  .K , @ X * t B B P ' [  ...+.l.Y.v.%. .^ ^ Q ^ ] | |  .o.o.| ! K J P } }.<X1X1X",
"E.U.U.U.D.F.=.&.+.+.&.+.| $.Y.Y.J.D.*.*.*.#.` U P Q g , > g B V f f U ' ..+.$.&.b.&...Q Q Q ^ ^ ] { ] ] ] ^ ~ B B L u.%X5X1X<X>X",
"E.E.Y.U.F.D.D.%.*.+...[ ' P  .F.J.J.H.=.=...~ B B d u > , t d g V M B ~ ......&.&...^ H V Q ! ! ^ ] ^ ^ ^ Q H Q ) B.%X%X>X>X>X>X",
"R.R.Y.I.I.H.v.%.*.&.[ ] U f f I  .G.F.v.#.` K N M M f d M g V B V B M V ^ ' | | ! Q h g V Q Q Q ^ ^ Q Q Q Q Q _ w.e.h.s.f.j.5.1.",
"z.c.b.Y.U.I.c.v.H.%.[ P M h f f H x.c.^ P V B V P P Q Q ' ~ ! Q V M h M K V 0 , : 0 d g V ~ Q P Q Q g Q Q i.r.w k B.2.f.A.2.D D ",
"H a.z.b.b.F.x.z.F.=.[ B d d M g H ).o.u M P P Q U P U P ~ Q P P J V V V P t = s m.b.v.( g B g h g ! _ 8 1 w 5 O T S.f.(.S.A.D A ",
"8 m.z.z.u.z.a.k.s. .^ P B g f u p.e.r 6 $ 7 K ~ ' ' Q P Q P P Q U K g t , 7 & & ) XX.X) - - : < w.1X1X:.+ + + X T (.S.(.A.2.D A ",
"w m.@XC.m.) } } | ( H u , * @ 5 T r u # O @ @ , d Q ' ' ^ P K V g 0 7 ,   o O   = _..X/ & @ : * 5 T t.q + @ 1 w T h.S.A.A.0.D A ",
"s m.@X:XB.C j = 8 5 @ ; i k @ @ 4 c > . O o X   o & , , , : , * # : 0 r ; + 7 # . k '.y.8 w.t.Z.- O @ @ + i <X:Xw.x e.S.A.<.D Z ",
"v t.@X1XZ.Y >   . . o t.6XV.: & 5 > o o X X O X X X o   o   o $ # , r r 6 @ 0 ) 9 + w.i.5 w.v g.= @ @ $ + = w.}.r.G p G } f.f.$.",
"v t.9X0Xg.E % + & . o w l 4 @ - T @ : 9 @ # * X X X o # # * , p r > r y y 7 @ L I.L s r.= # $ & ; - T g.v = = M.5.E Y x p p E e.",
"g.}.:XC.g.j.Y B.C.1 . . . o & & : > x 4 # 5 * X o . $ t p p d f H y r s k p , # c p.z _.q # $ @ + - Z.1X@Xw i [.!.<.C Y Y G Y E ",
"v v T k r.g.e.g.z + . . . & = + 0 L x - 4 5 + o o + 9 f h p G M H L h y p s k w - & i h.< @ : w q 1 = 5 & + Y q.q.3.;.A Y Y Y E ",
"}.+X:Xg.R R + O . + i w.l & 1 : _ / 0 - 8 @ X * O 9 f f M M G J L I ~ I c x x x x L n.s.: * g.1X1Xz o X . . m ;.-.S -.-.>.>.,.,.",
"@X:X:XZ.z k   .   i 1XeXZ.& - q v X.q = ;   = < & H H g M H L I ! / / ( X.| | O.a.K.L.p.- # 5 k q ; o . X X C <.4.q.q.0.4.<.<.5.",
":XC.:XV.z q @ o . - z l 4 @ q _.i.c 4 o @ 5 k ; u ! Q H K L I I ( / ( X.X.o.| O.@.c.G._._ & o O o o o 1 e.t.:.N.{.{.[.Q.3.<.-.<.",
":X+X}.C.l e.V.w o O + @ @ l :X&XOXI.( z v _ w & ) ( ! Q ! / / ) ( ( X.u.{ { ^  .@.d.G.'.qXl o o O o X q <X2XB.C.[.{.*X/.q.<.;.-.",
"+X}.C.Z.i B.}.5 O + @ & & v <X$XOXOX.XZ.r._ $ s n.X.( _ ( ) ( X.X.r.y.X.X.{ ]  . .O.d.b.g.4 o o X . . O 5 e.[.=X7X>X=X{.[.N.4.<.",
"q 5 : & $ w 1 @ & 1 8 & & * q ).OXXX.X).r.i $ i.b.i.X.X.X.X.X.i.u.u.X.X.o.| | O. . .d.u.> @ + * v v 5 + a 5.M.>X2X>X=X=X*XM.~.[.",
"w.5   o @ # @ = g.<X<Xs ; & * p.OXXX.X.Xw.$ k .Xb.b.s.u.o.r.y.s.s.X.X.O.o.| | O.o.[ O.u.> @ o z 0XyX>Xv 5.M.M.~.{.7XtX1X=X[.[.[.",
"eXv X @ & & * q 0XyX:Xq & ; * i.OXXXOX.Xc & m.).).T.n.i.i.u.) y.i.o.X.X.| (  .$.[ ]  .p.1 @ O - v Z.t.j.*XB.g.1.,.{.tX1XN.,.<.f.",
":X1 o O $ & & - z z 4 $ - 8 i r.XXXXXX.X/ s ).T.T.b.n.s.s.u.X.X.o.X.o.o.] | o. .] ] ..S.C.g.8 O . @ ; :.[.M.:.>.-.;.q.Q.4.,.,.5.",
"V.e e w.t.i * # @ ; ; = g.1X1XC.).OX.X).b.i.).b.I.V.b.b.n.s.u.u.X.o.X.| | | ..| [ ..@._.wXeXC.- @ @ @ e.{.N.W D S b S ;.<.4.,.1.",
"3X=X_.wXyXz # @ $ $ ; 1 C.1X+XT n.OX.XE..X`.T.b.E.b.b.b.x.z.s.u.o.u.o.| o.|  .| ' ' O.s.B.,XB.- # $ 2 5.[.h.1.-.n b A n S 4.>.>.",
"^.-X|._.w.- O O @ @ + o & 5 1 @ ) OX.XR..X.XT.).T.V.b.T.b.n.s.X.X.X.X.| ] ^ ] ] ' ' a.i.> 4 : # & @ x -.j.M.f.2.A n b n b b Z C ",
"^.^. XM.q O * z w.8 o X . . . o q @XXX).).).T.).R.I.T.T.b.z.o.( ^ ^ ^ ^ ^ ^ ^ { | | x.E & @ + # # e e.,.A f.M.N.3.S n n b m C C ",
"^.^.0.W G 0 V.8X6Xk   X X X X . y XXOX.X.X.X.Xb.b.T..Xb.u.^ Q ! Q Q Q ^ ^ ^ ]  .O.$.s.G $ @ # $ @ :.g.1.-.Z 4.[.=X~.3.;.;.-.>.>.",
"^.!.0.7.<.4.{.B.v @ X X X X X . c &XOX.XV.b.z.b.b.n.b.z.^ Q H Q Q Q Q ] ^ ] |  .o.a.p.7 @ # @ # # 2 E W ;.Z 3.q.~.[.~.~.[.N.~.~.",
"A.A.Q.3.;.;.D a + X X X . X X X $ r.OXW.b.k.|  .s.O.X./ Q Q Q Q ^ ^ Q Q ^ ] | | o.o.L # # 8 e & @ * C D A A ;.-.n -.4.~.M.M.N.f.",
"2.A.A.0.A.A.W m 3 O X * 1 @ X X   q XXW.b.@.^ ! ~ ( ^ 0 9 Q H g Q Q Q Q { { { {  .o.x o 1 :X1XZ.> > C m b Z n Z b n A -.4.N.N.N."
};
