/* XPM */
static char *moco02[] = {
/* columns rows colors chars-per-pixel */
"64 64 202 2 ",
"   c #0C0D0F",
".  c #0E0F10",
"X  c #0F1012",
"o  c #131414",
"O  c #1C1A15",
"+  c #151719",
"@  c #17191B",
"#  c #1A1C1D",
"$  c #181714",
"%  c #10100F",
"&  c #231E16",
"*  c #2B251B",
"=  c #292318",
"-  c #342A1B",
";  c #3A2E19",
":  c #332817",
">  c #3E311C",
",  c #1C1E21",
"<  c #1E2124",
"1  c #212326",
"2  c #232629",
"3  c #26292D",
"4  c #2A2C2D",
"5  c #2C2923",
"6  c #332F26",
"7  c #383329",
"8  c #272B30",
"9  c #292D32",
"0  c #2D3135",
"q  c #2E343A",
"w  c #333433",
"e  c #31363C",
"r  c #33383E",
"t  c #3C3A37",
"y  c #44341B",
"u  c #49371B",
"i  c #4C3A1D",
"p  c #503D1F",
"a  c #4C3C22",
"s  c #453926",
"d  c #513E21",
"f  c #433D34",
"g  c #4D412D",
"h  c #554224",
"j  c #5A4526",
"k  c #54442A",
"l  c #5A4729",
"z  c #5D492B",
"x  c #4A4338",
"c  c #5C4C34",
"v  c #564A38",
"b  c #5E513B",
"n  c #624D2D",
"m  c #66502F",
"M  c #624F31",
"N  c #655233",
"B  c #6B5533",
"V  c #64543B",
"C  c #6E593B",
"Z  c #6D5738",
"A  c #725A36",
"S  c #745D3B",
"D  c #795F3A",
"F  c #7C623D",
"G  c #343A42",
"H  c #393E45",
"J  c #383F48",
"K  c #3C434C",
"L  c #3E4144",
"P  c #3F4752",
"I  c #4D4A45",
"U  c #454647",
"Y  c #534E45",
"T  c #5B5244",
"R  c #57534C",
"E  c #434A54",
"W  c #474D55",
"Q  c #4A525C",
"!  c #4C5157",
"~  c #5A5A58",
"^  c #6C5B42",
"/  c #6B5E4A",
"(  c #645846",
")  c #725E41",
"_  c #625D55",
"`  c #6D604C",
"'  c #746144",
"]  c #7C6543",
"[  c #73634B",
"{  c #7A664A",
"}  c #7D694C",
"|  c #7F6846",
" . c #6D6353",
".. c #66635C",
"X. c #746652",
"o. c #756955",
"O. c #7C6B53",
"+. c #786D5A",
"@. c #7E715D",
"#. c #535B64",
"$. c #4F5762",
"%. c #5D6064",
"&. c #696967",
"*. c #726D66",
"=. c #7B7468",
"-. c #6D7278",
";. c #767877",
":. c #646B72",
">. c #81653E",
",. c #816741",
"<. c #846A45",
"1. c #846D4B",
"2. c #886F4B",
"3. c #8A714E",
"4. c #87704E",
"5. c #826F53",
"6. c #857154",
"7. c #8C7553",
"8. c #8F7856",
"9. c #84735A",
"0. c #89765A",
"q. c #8D795C",
"w. c #917956",
"e. c #937D5B",
"r. c #837662",
"t. c #867862",
"y. c #8B7B63",
"u. c #887D6D",
"i. c #927F62",
"p. c #817D74",
"a. c #97805F",
"s. c #8C816D",
"d. c #968263",
"f. c #9A8464",
"g. c #9D8867",
"h. c #94856C",
"j. c #9A8769",
"k. c #9E896B",
"l. c #898377",
"z. c #928671",
"x. c #9C8C73",
"c. c #968A77",
"v. c #9D907A",
"b. c #A18C6D",
"n. c #A28F71",
"m. c #A39175",
"M. c #A4957C",
"N. c #A7987F",
"B. c #757C84",
"V. c #7D8184",
"C. c #7C8691",
"Z. c #878887",
"A. c #9D9484",
"S. c #96948C",
"D. c #838B94",
"F. c #949593",
"G. c #999A99",
"H. c #8D9092",
"J. c #A39681",
"K. c #A69983",
"L. c #A49B8A",
"P. c #A99E8A",
"I. c #A89A84",
"U. c #A39E93",
"Y. c #ABA18E",
"T. c #ACA494",
"R. c #A4A29B",
"E. c #ACA699",
"W. c #AFA99D",
"Q. c #A5A095",
"!. c #B0AA9D",
"~. c #939BA4",
"^. c #8F9CAB",
"/. c #9AA3AD",
"(. c #98A5B5",
"). c #A8A9A6",
"_. c #B1ADA2",
"`. c #B5B2AB",
"'. c #B5B1A7",
"]. c #A2ACB6",
"[. c #AAB2BA",
"{. c #B6B6B1",
"}. c #B9B9B5",
"|. c #B7BAB9",
" X c #AEB1AF",
".X c #A9B6C6",
"XX c #B4BDC5",
"oX c #ABBED4",
"OX c #9DAEC2",
"+X c #BAC3CB",
"@X c #AEC1D8",
"#X c #B7C7D8",
"$X c #B6CAE3",
"%X c #BACEE4",
"&X c #B9CFE9",
"*X c #BCD2EC",
"=X c #BFD0E4",
"-X c #C0D6EF",
";X c #C1D1E3",
":X c #C2D7F0",
">X c #C3D9F1",
",X c #C1CFDF",
/* pixels */
"L X ! =.} 3.7.8.f.n.n.m.m.b.b.b.b.b.e.f.b.a.3.>.>.2.3.>.>.A B n B B B >.D A n n n p j j p u i i m y & &       X & d d a y l j n ",
"w 1 o.g.8.2.7.7.f.n.m.m.b.b.b.b.b.b.e.e.e.>.>.>.>.>.>.>.B A m n m A >.A ) A m d n n n j p p p i n u & $     X X & c a y d n d d ",
"t o.j.g.e.8.8.j.b.n.m.m.b.b.b.b.b.a.e.2.>.>.>.>.>.>.>.>.A B n m m B >.D ,.D B d d n B n p p h i n u 5 5     + o & a y s n M d n ",
"=.k.b.a.a.e.f.b.m.m.M.n.b.b.f.a.b.e.w.w.3.>.B >.>.>.>.A A m B B n m m m m B n d d j n d p u p i d = w w     , + = y y v n n d d ",
"x.b.g.a.g.g.b.b.b.b.b.b.b.g.a.w.e.e.a.7.3.>.>.>.>.>.D A A B n B m n B m j A A d d n n d i u u p y % w w     , & - - d z z n d d ",
"b.m.b.b.b.b.b.b.a.b.b.b.b.b.f.w.e.b.w.<.>.A >.3.w.<.D m m >.] A B n B A A A m j d B B n n p u s y $ w w     & 5 - s l n c z d d ",
"n.m.n.m.m.m.b.a.a.b.b.b.b.b.b.a.w.e.w.>.>.<.2.2.<.>.D D m D ,.A A n m ) 3.A n n d A D B n n d y y = 4 4     & - - p d M M n a d ",
"N.N.N.J.M.n.j.3.f.b.b.b.b.b.b.g.b.w.2.2.w.3.3.2.>.>.A A B F ,.,.>.A A A 7.1.D m m S A n j B A a d * w 4     = & = i j B A m d d ",
"N.m.M.M.h.d.6.' 8.g.b.b.b.e.a.a.w.w.2.2.w.w.e.2.e.2.,.S B ] ,.,.>.D A Z ) 1.Z n B C ^ A m A Z j d u f 4 . * = o & i d A >.A j n ",
"b.K.x.q.0.0.i.^ ,.a.m.m.b.a.e.f.w.2.w.e.a.a.f.e.b.1.D ,.B Z ,.] D ,.A C } ,.B M A ,.) N Z ) B d d i k 4 + * $   & i j D D A m m ",
"m.h.0.o.s.C o.v s  .h.k.g.b.g.a.w.7.w.b.b.e.w.e.<.A S 2.S D 1.S ,.1.) A S S ) n m ) ) Z ,.,.N n M z k 6 6 O     & i j >.>.D m B ",
"k.y.r.+. .v 7 w + G ..h.e.e.f.g.b.e.w.w.w.3.2.>.A A D 2.] F 4.S 1.4.7.1.Z S 1.Z n N O.1.5.,.) ) <.] k f *     . : p j A >.>.m A ",
"6.9.Y _ x 6 o , H Q ! *.q.w.a.w.7.w.e.3.>.>.>.>.A A >.D >.,.8.<.4.q.g.3.Z S 1.) S n ] 1.i.i.6.) { C v 7 % . .   * i l B A >.m A ",
".._ = 4 1 < 2 e ! W r _ y.j.g.8.e.a.w.w.>.A A >.>.n A A D 2.1.,.7.g.i.8.n n c z ^ ,.1.7.m.m.9.^ ) A s = o .     * i d M A D B D ",
"t ,   X 3 q J E Q E K ~ i.f.b.a.a.b.a.b.7.>.>.>.2.A Z ,.<.2.2.] 6.g.8.S d l d N 5.2.w.n.I.x.5.^ z l * = & .     * d d z B A B >.",
"o , , < J Q P Q Q E K R y.k.f.a.e.a.b.b.e.7.<.<.2.<.2.<.<.2.7.7.8.8.A d d d v 9.y.7.b.J.I.c.X.l y : 7 - ; %     * i h M m A B A ",
", K G P #.#.Q $.! W W ..s.x.d.e.e.e.w.d.e.<.<.<.2.7.w.1.A >.7.f.0.7.F m h k m y.d.d.x.M.J.z.^ z s s g 7 &       * i h n B S N C ",
"< ! $.#.%.Q ~ *._  . . .6.i.d.8.e.f.i.8.] A >.<.3.w.w.1.A D D <.S ] 6.4.F B { 6.a.d.d.k.v.r.V N c d a - %       : i h n N C k z ",
", W Q #...@.0.1.S S } 6.<.] 8.e.a.j.d.e.2.D D 2.7.2.2.2.2.,.D D F F 4.| ' 5.] F } 7.0.0.r.o.( z z s s 5         : i h z M c g v ",
"< #.Q %.+.] | ] <.6.d.e.e.6.6.8.7.e.j.8.<.<.>.2.2.<.,.<.1.2.2.<.1.<.7.<.] } ' F S { } +.*.o.( c V k s - o       : u i j z s a Z ",
"8 E P ~ } ] 1.1.e.x.m.n.k.k.d.e.7.6.1.1.F F F <.>.>.<.>.2.w.w.2.3.2.3.,.F ] | ] S ] ' o.o./ b b c h a - o   .   - u k k s s z D ",
"3 E P E  .] { 1.e.j.m.M.m.m.j.h.e.2.1.F ,.1.,.F >.2.2.7.w.a.a.w.w.e.8.2.1.1.] | ] } 5.X.^ ^ V c i u s - o   . % 6 k s s u h l A ",
"0 #.E Q ~ X.] 1.e.x.m.L.K.J.x.k.f.7.3.1.<.,.] F >.7.w.e.e.e.w.w.w.7.<.3.6.3.1.7.q.4.1.} ^ N b h u y 6 ; %     & s s > u i h h B ",
"0 #.E Q ~ _ [ ' 2.h.M.P.P.A.A.m.h.q.7.<.<.] ,.<.2.7.w.2.w.w.3.w.3.7.3.2.7.1.1.w.q.5.1.1.1.C l a i > ; ; o % * 7 > > i i p a l Z ",
"e Q E P ~ R / Z B F 6.d.J.Q.Q.A.x.h.e.<.2.,.D ,.2.8.e.e.w.w.w.w.3.3.7.a.2.3.3.8.7.4.q.7.} F N h y > > : $ - - O - y i p i h l B ",
"9 E E E E W R c j n S O.h.L.L.A.A.c.i.2.7.<.,.,.3.e.b.7.w.e.w.3.2.7.7.3.w.w.1.7.] { 6.5.{ ' z u > y > : : =     - u i i p h l D ",
"< K $.W K K U T B M B 5.h.z.s.u.s.z.q.2.w.8.2.w.w.w.e.7.w.w.w.3.2.7.a.7.w.g.a.3.1.] ' ] ' ' z i u > : = o       : u i i i h l F ",
"o q E J J K U L T z M 1.0.5.O.O.t.i.6.2.w.2.2.w.w.w.a.b.a.e.a.e.w.a.a.e.e.g.j.e.0.6.{ ' C C m i ; = = $         : i i i i a h Z ",
"o G P P P P G J U g l C S ' [ O.9.0.7.7.2.,.<.3.e.b.b.b.b.a.f.e.a.a.e.e.d.j.h.e.0.9.0.{ C S Z h & : = %         : u i i p i l C ",
"X q P P K K G K W f g k c C { 9.9.q.8.7.>.,.<.w.a.b.b.b.b.e.w.e.e.8.k.k.k.n.h.0.o.[ ' C V B B j y = : O         : i i i i d l A ",
". G P G J G G K H U H f k c } 6.9.4.<.,.>.<.8.a.b.b.b.b.b.b.b.b.k.e.k.m.M.j.t.O.[ ^ [ [ N N Z h y : : O         ; u i d i i k B ",
"+ q G G P P q q G G e e I V o.9.5.5.,.] <.8.e.b.n.n.b.n.b.b.b.b.b.b.k.m.m.z.9.+.o.+.y.y.{ N N h y > ; O         ; i i i p i g N ",
"+ 0 0 G K K K q q K q L L Y b X.O.} | | F a.b.n.n.Y.N.N.M.M.m.b.m.M.b.b.M.v.z.Z.A.Q.v.h.6.C V h u u : $       % ; i i i i u h z ",
"+ q K K q q 0 L K L 0 e q x C { | { 4.4.7.a.n.M.Y.T.T.T.T.T.N.Y.M.Y.M.m.v.A.U.E.R.E.S.x.y.O.{ h i u ; $         ; i u u p i y l ",
"+ q G 8 q G K G K K e K L L b ` ' F 6.a.a.a.m.Y.T.!._.E.W._.T.N.m.Y.Y.P.K.A.A.A.S.A.A.c.y.O.V h y i : X         : u u u p u 7 h ",
"@ G q 0 G K q 0 K q e q e q t T b C 3.a.7.k.Y.W.!.W.W.T.E.T.T.Y.m.N.P.T.P.c.s.=.=.s.s.l.=.[ N h u y - 4 q q 2 e &.l.+.` d u > p ",
", q K 8 G K < 0 q G q q 9 e 0 e c C 3.3.j.Y.W.`.!.T.Y.K.A.Y.Y.T.P.M.M.T.A.9.( 5 O 7 X.+.o.` ` c u s -..X@X@X(.~.+X=X+X+X+.> > i ",
"@ q G 0 0 q K q G G 8 8 8 e L e ( o.O.3.f.N.T._.W.T.M.z.x.M.Q.Y.Y.N.M.K.z.@.t X . . g ` X.( ' v u ;.$X*X*X*X@XC.#X%X+X#XR.g > i ",
"# 0 q q 8 0 q L e q 8 0 q 4 q t b [ | F a.M.T.'.W.A.I t T z.T.`.T.Y.T.'.Q.s.x 5 X + g b o.` b h ..@X*X*X=X*X$XB.].=X+X+X+Xb > u ",
", < q G 8 8 8 q 0 8 0 0 3 4 3 t Y V | j.Y.'.{.'.Y.` < e 5 =._.|._.E.W.}._.A.y.(  . .` ` V ^ V v [.*X*X#X$X&X&X^.(.]./.Z.-.R x v ",
"+ 8 0 8 0 8 < 0 0 9 9 4 9 9 3 2 w V 3.k.Y.T.W._.v.T < < 1 =.W.{.`.W._.`.`.E.N.n.m.h.s.q.` c k Z.*X&X&X&X&X*X*X(.C./.].[.OX].~.F.",
"+ q 0 8 q 8 < 8 9 3 < 0 q q 0 < 0 ( O.O.z.Y.Q.M.h.s.x w ` s.M.E.`.`.'.}.{.W.N.m.x.6.0.6.S b T @X*X*X*X*X*X*X*X(.%.G.R.|.$X+X*.k ",
"@ 8 0 8 q < 0 8 9 4 2 3 8 9 3 3 9 I ` [ z.c.s.7.x.M.M.c.k.n.m.Y.`.}.`.}.|.{.E.K.j.6.} } ' k C.*X>X*X*X*X&X*X*X.XV.|.)./.XX+XZ.y ",
"+ 8 q 0 8 8 8 0 9 < 4 8 9 < < 3 3 0 ` @.=.d.f.k.M.W._.M.j.Y.M.T.`.`.`.'.`.`.'.A.x.0.9.o.^ V .X>X>X>X*X*X*X&X*X@XB.[.+X[. X XR...",
"< 0 q 9 < < 8 q 8 3 9 9 q < 3 < < 3 b X.O.a.x.x.Y.{.{.Y.g.M.Y.T.`._.L.c.l.F.).E.S.u.+.o.V *.=X>X*X>X>X>X>X*X*X@XV.).=X#X#X+X}.|.",
"< 8 8 8 8 < < 8 < 8 9 9 9 3 8 < < < f  .} 7.a.x.T.}.!.!.'.T.E.{.}.G.*.I t L V._.R.S.u.T T C.*X>X>X*X*X>X*X*X*X&X~.E.+X#X=X=X#X+X",
"< 9 8 3 8 8 8 < < 9 9 < 3 < < 3 < < x +.9.O.O.j.!.{.T.W.`.`.{.}.{.&.t q 3 + U G./.S.R :..X@X*X>X>X*X>X>X>X*X*X=X~.G.+X@X#X@X$X+X",
"< < 8 < 8 < 8 8 9 < 9 < < < < 3 < 1 g } @.@.X.a.T.T.T.!.`.}.}.{.R.U 0 9 @ X 0 Z.S.l.%.oX*X*X>X>X>X>X>X>X>X*X>X*X/.S.R.F.].@X@X@X",
"8 < < 8 < 9 8 8 < < 3 3 2 3 3 < < w T O.O.9.X.X.v.Y.N.Y._.|.|.+X/.! < X   % L =.l.;.-.%X*X*X>X>X*X>X>X>X>X*X*X>XC.F.G.R.%X*X*X*X",
"< 8 < < 2 3 < 3 2 3 3 < < , < , < f  .@.O.{ C ' 8.x.N.Y.W.}.|.|. XV.L + o w _ %.-.:.:.=X*X=X:X>X>X>X>X>X>X>X*X>XC.S.G.p.OX*X&X&X",
"< < 9 8 < 8 3 < < < < < < < < < 2 R ` X.O.' S } O.0.d.Y.}.}.{. X XG.;.v Y -.;.V.V.-.#.%X&X*X>X>X>X>X>X>X>X*X*X:XF.F.F.D.@X*X*X&X",
"3 0 < 8 < 3 < < < 3 < < < < < < 2 x b O.6.{ ' [ { [ 9.Y._._.E.Q.Y.=.v 7 5 7 W ~ :.&.L ^.@X*X>X>X>X>X>X>X>X>X*X*XH.F.G.D.@X&X*X*X",
"< < < 8 < < 3 < 8 < 3 < < < , < , x X.@.O.{ } [ C [ @.m.L.U.Q.c.@.b g 7 > - w 6 x 5 7 R -.@X>X>X>X*X>X>X>X>X*X:XC.S.S.&.(.*X*X&X",
"< 8 < < < < < 3 3 < < < < < < # # R @.O.C { O.[ ` X.[ X.=.s.l.p.T v c c v x 7 x g 6 k O.` ].>X>X>X>X>X>X>X*X*X>XC.S.S.Z.OX*X*X&X",
"< 3 < 8 < < < < < < < 3 , , < @ < Y X.` ` O.} } S ` c g x Y &.c.;.Y .. ._ x w _ v 7 b @.X.G.>X>X>X*X>X>X>X>X*X*XD.H.L.Z.+X=X*X&X",
"8 < 8 < 8 3 8 3 8 < < , < < < # < t f X.@.O.O.O.` ` g t 5 o e V.).V.! L 0 t _ *.x 5 c s.o.Z.*X>X>X>X>X>X>X>X*X*X~.S.S./.@X#X@X.X",
"8 8 8 2 < 3 9 < < 8 < < < < 8 < < < 4 R o.X.X.O.` b w @ + < K -.R./.Z.-.%._ R I O $ ` d.@.s.$X>X>X>X>X>X>X*X*X&XC.Z.G.+X%X=X=X=X",
"2 8 3 2 3 3 < 9 < 3 8 < < < 3 3 3 < # 3 x T  .` ` f + @ + @ < 0 ! ~ W %.L * < @ o O ` j.a.s.[.>X>X>X>X>X>X*X&X&XC.l.G.#X=X=X=X=X",
"4 3 8 8 < 3 < < < < < < , < < < < < , , < 4 t f 5 o + < @ @ + + , @ o + X o + o o # o.x.a.s.H.*X>X>X*X>X*X*X*X&X(.C.Z. X|.+X|.).",
"8 2 2 8 < < 3 < < < < < 5 3 < < < < < < < < # + @ @ < < < @ @ < #     o @ + @ @ + 1 O.M.h.h.*.[.>X*X>X*X*X*X*X@XC.^.~.F.[.+X/.v ",
"3 2 8 2 < < 3 * 3 2 3 < 3 8 3 < < < < < < < < , @ # < 8 < < # # @ .   + < @ < @ + 1 @.M.n.n.` B.=X*X*X*X*X*X*X@X&.Z.(.].^.+XH.y ",
"8 8 2 3 3 < 8 < < 3 2 2 < < 8 3 < < < < < < < < < < < 8 @ + < @ < X X @ X X < @ + # a.L.M.M.b ..XX$X*X&X&X&X$XXX%.S.].].].(.H.~ ",
"9 8 3 < 8 < 1 < < , < < < < < # < < < @ < < < < < < 8 < < < < # # X . + + < @ < + 5 s.Y.M.M.`  .;.@X@X@X@X@X#X]._ ).XX|.@XC.C.~.",
"8 3 9 3 2 3 3 3 < < < 3 8 2 < < < < < < < < < < < < < < < < + @ < X . + @ @ < < o 5 d.Y.N.Y.=.b w C.@X$X@X+X@XD...#X+XXX=XF.U %."
};
