/* XPM */
static char *moco03[] = {
/* columns rows colors chars-per-pixel */
"64 64 217 2 ",
"   c #0B0C15",
".  c #0A0D16",
"X  c #0E121B",
"o  c #12141D",
"O  c #19181E",
"+  c #0F1825",
"@  c #121721",
"#  c #141924",
"$  c #1C1D22",
"%  c #131D2A",
"&  c #191E28",
"*  c #0F1E30",
"=  c #201F23",
"-  c #15202E",
";  c #1C222B",
":  c #1F2027",
">  c #142333",
",  c #1C2532",
"<  c #142639",
"1  c #182A3C",
"2  c #242326",
"3  c #24252A",
"4  c #292729",
"5  c #2C2A2C",
"6  c #27272C",
"7  c #312E2E",
"8  c #37312F",
"9  c #242A34",
"0  c #2C2D32",
"q  c #242D3A",
"w  c #252B35",
"e  c #312F31",
"r  c #2C333C",
"t  c #29303B",
"y  c #353232",
"u  c #3A3533",
"i  c #3F3936",
"p  c #33353B",
"a  c #3C3A3C",
"s  c #36373C",
"d  c #433B35",
"f  c #443E3B",
"g  c #483F39",
"h  c #483E37",
"j  c #4B423C",
"k  c #47413D",
"l  c #51463E",
"z  c #152D45",
"x  c #142F49",
"c  c #192D42",
"v  c #16314A",
"b  c #1A334A",
"n  c #1A3047",
"m  c #2D3642",
"M  c #2E3946",
"N  c #26394B",
"B  c #2D3C4C",
"V  c #233345",
"C  c #313741",
"Z  c #343B44",
"A  c #3A3E44",
"S  c #353E49",
"D  c #393F48",
"F  c #233B52",
"G  c #413F41",
"H  c #3D4047",
"J  c #36414D",
"K  c #3C424C",
"L  c #344252",
"P  c #3D4651",
"I  c #3F4854",
"U  c #3C4B5B",
"Y  c #34475B",
"T  c #2F4256",
"R  c #3B4D61",
"E  c #434244",
"W  c #4B4543",
"Q  c #4D4846",
"!  c #42464D",
"~  c #46484E",
"^  c #4B4A4D",
"/  c #484749",
"(  c #544B44",
")  c #594E45",
"_  c #534E4B",
"`  c #584F48",
"'  c #5C534C",
"]  c #5A5049",
"[  c #414750",
"{  c #444A53",
"}  c #4A4D54",
"|  c #444E5A",
" . c #484F58",
".. c #504F51",
"X. c #4D5056",
"o. c #46505D",
"O. c #4C525B",
"+. c #525255",
"@. c #5B5552",
"#. c #53555B",
"$. c #56585E",
"%. c #5A5A5E",
"&. c #595758",
"*. c #61554C",
"=. c #64584E",
"-. c #645A52",
";. c #6A5E55",
":. c #615D5C",
">. c #685F58",
",. c #6D635A",
"<. c #6D6156",
"1. c #73665B",
"2. c #76695E",
"3. c #77695A",
"4. c #455261",
"5. c #4C5662",
"6. c #4E5965",
"7. c #4D5A69",
"8. c #465668",
"9. c #505761",
"0. c #545B64",
"q. c #5A5D62",
"w. c #545D68",
"e. c #595F68",
"r. c #605F61",
"t. c #5D6066",
"y. c #5B6169",
"u. c #55616D",
"i. c #586572",
"p. c #626264",
"a. c #6B6663",
"s. c #636569",
"d. c #66686D",
"f. c #6D6B6C",
"g. c #6E6967",
"h. c #736A61",
"j. c #7A6D62",
"k. c #706E6D",
"l. c #7B736C",
"z. c #797069",
"x. c #696D72",
"c. c #69717A",
"v. c #787777",
"b. c #84776A",
"n. c #87796C",
"m. c #887969",
"M. c #867D75",
"N. c #8E8173",
"B. c #8A837C",
"V. c #94897D",
"C. c #9A8C7D",
"Z. c #958576",
"A. c #95836F",
"S. c #A18D76",
"D. c #A6917A",
"F. c #7A7E81",
"G. c #7F8284",
"H. c #878786",
"J. c #948D85",
"K. c #999897",
"L. c #A79785",
"P. c #A99C8E",
"I. c #B9A48B",
"U. c #B8A997",
"Y. c #BEB19E",
"T. c #B5B0A9",
"R. c #C4AD92",
"E. c #CBB397",
"W. c #D5BB9B",
"Q. c #D9BE9C",
"!. c #D0B799",
"~. c #C5B7A6",
"^. c #C7BDB1",
"/. c #DEC19D",
"(. c #E2C49E",
"). c #D9C8AF",
"_. c #CAC2B5",
"`. c #D6C9B6",
"'. c #DFD1BE",
"]. c #E5C7A0",
"[. c #E7C9A1",
"{. c #ECCCA2",
"}. c #E8CEAA",
"|. c #F0CFA3",
" X c #F4D3A5",
".X c #FAD7A7",
"XX c #F9D9AC",
"oX c #F6D5A8",
"OX c #E5D4BA",
"+X c #F9DCB3",
"@X c #F9DFB9",
"#X c #F7DFBC",
"$X c #F8E0BD",
"%X c #F7E0BE",
"&X c #D9D2C6",
"*X c #DDDAD3",
"=X c #D2CEC6",
"-X c #E7DBC8",
";X c #E2DFD8",
":X c #E3DED5",
">X c #EDE1CD",
",X c #F6E3C5",
"<X c #F8E3C4",
"1X c #F7E6CB",
"2X c #F8E6C9",
"3X c #F7E8CF",
"4X c #F8E9CE",
"5X c #E6E3DD",
"6X c #EBE7DE",
"7X c #EEE8DB",
"8X c #EEE3D0",
"9X c #F6E9D3",
"0X c #F8EAD2",
"qX c #F1E9D9",
"wX c #F1E6D2",
"eX c #E9E7E1",
"rX c #EBE9E2",
/* pixels */
"5X*X*X5X5X5X5X;XeX5XeXeXeXeX6X6X6X6X6X7X7X7XqXqXqX_.@.&X9X0X0X9X3X3X3X3X3X1X1X3X1X,X,X,X,X,X<X<X$X%X$X$X+X$XXX$XXX+X+X+XXXXX+XXX",
"*X:X;X6X5X5X5X5XeXeXeXeXeXeX6XeX6X6X6X7X7XqXqXqXqX^.,.-X0X3X9X3X3X3X3X3X1X3X1X1X2X2X1X,X,X<X$X$X$X$X$X+X$X$X+X+X+XXX+XXXXXXXXXXX",
"*X;X;X5XeXeXeXeXeXeXeXeX6XeX6XeX6X7X7X7XqXqXqXqX9X_.z.8X3X9X9X4XwX3X3X1X2X1X1X1X2X<X$X$X<X%X$X$X$X$X+X+X+XXX+XXXXXXX+XXXXX.X.X.X",
"5X5XeXeXeXeXeXeXeXeXeXeX6X6X6X6X6X7X7X7X7XqXqXwX9X_.B.1X0X4X3X4X3X3X1X1X2X1X,X,X2X2X$X$X%X$X$X$X+X+X+X+X+X+XXXXXXXXXXX.X.X.X.X X",
";X5XeXeXeXeXeXeXeXeX6X6X6X6X6X6X6X7X7XqXqXqX9X9X0X`.P.3X3X1X1X1X1X1X2X2X2X2X2X<X$X$X$X$X$X$X$XXX+X+XXXXXXXXXXX.X.X.X.X.X.X.X X X",
";X5XeXeXeXeXeXeX6X6X6X6X6X6X6X6X7XqXqXqX9X9X9X9X0X`.Y.4X1X1X1X2X2X2X2X2X,X<X<X$X$X$X$X$X$XXX$X$X+XXXXX.X.XXX.X.X.X.X.X.X.X X|.(.",
"5XeXeXeXeXeXeXeX6X6X6X6X6X6XqX6X7XqX9X9X9X9X0X3X0XOX`.2X1X2X1X1X,X2X,X<X$X$X$X$X$X$X$X$XXXXXXXXXXX.X.X.X.X.X.X.X.X.X.X X X(.(.(.",
"eXeXeXeXeXeXeX6X6XrX6X6X7XqXqXqXqXqX9X4X9X0X9X0X0XOX'.<X1X,X2X<X<X<X$X$X$X$X$X$X$X$XXXXX$XXX.X.XoX.X.X.XoX.X.X.X.XoX X X(.(.(.(.",
"eXeXeXeXeX6X6X6X6X6X6X7XqXqXqXwX9X9X9X9X3X3X4X1X0X`.`.2X,X<X<X<X$X$X$X$X$X$X+X+X$X+X+XXXXX.X X X X X|. X X X X X X(.|.(.(.(.(.(.",
"eXeXeXeXeXrXrX6X6XqX7XqXqXqX9X9X9X9X4X4X4X1X1X2X0XR.~.2X,X<X<X%X$X$X$X$X$X+X+X+X+XXX.X X XoX X(.{.{.{.|.{.{.{.{.(. X(. X X(././.",
"rXrX5X*X=X=X=X*X:X6X7XqX9XqX9X9X0X3X1X-X-X&X-X-X4XC.L.2X<X<X<X$X$X$X$X$X+X+X+XXX.X.XoX X|.{.(././.(.(.[.(.[.{.|..X|.|.(.(.R.E.!.",
"K.F.9.K p r Z | x.H.T.&XqX9X0X9XwXOXT.T.T.I.U.E.`.V.U.).+X$X%X@X$XXX$XXX+XXXXX.X X X|.(.(././././.(.(./.(.(.(.|.(.S.3.3.<.A.!.E.",
"> * + + - % % n Y 0.G.T.&X9X9X8X^.P.J.H.H.M.B.H.K.L.P.L.R.}.+X+X+XXX+XXX.X.X.X|.{.[././././././././.W./././.E.D.' y 3 : 2 -.D.I.",
"< < - + % > + % U c.x.K.`.-X>X^.J.l.x.s.s.s.d.l.B.N.V.V.C.R. X+XXXXXXXoXoX X X(.(././././.W./././.!.I.!././.D.f : : , 9 : 0 p +.",
"1 < < % % P p.; t.^.K.c.T.&X=XB.f.y.q.&.&.#.%.p.f.k.M.V.C.A.L.{.XX X|.|.(.(.(./././.W.W.W.W.W.W./.W.I.E.E.I.S.G ; - > < < 1 x v ",
"c M { Z @ a.~.M.3 J._.H.G._.T.d.$.O.X.X.^ ^ ^ X.&.r.g.l.C.1.<.I. X|.{.{.{.(.(././.W.W.W.W././.!.I.I.D.Z.<.a w q 1 1 z x x z x F ",
"k.l.f.L % : J.Y.^ 6 H.c.7.F.H.x.O.{ ~ / H E k k k Q ] :.M.N.j.L./.I.Z.A.R.)./.!././.I.I.S.m.b.2.E s s r 1 < z z n v v v v v v N ",
"l.K m + X . 6 } q * z v F 4.k.s.O.~ E H s y y y 8 8 d _ 1.N.2.n.S.Q a H l.E.C.v.U.N.l.+.t ; O - M b n n x z v b b v v v b n z b ",
"X.- + .   . * z x v v b U v.f.O.{ E s y 5 2 2 4 7 u f ( <.N.N.' N.Z.v.v.N.B.X.I H.F.t.v.t.h.o.T R F x x x v v v v v v b b N J J ",
"z z v z + + z x x n n N d.k.$.K H a y 5 o   . o 5 W @.' <.n.Z.n.,.B.u.8.G.M.0 J B.c.7.8.7.F.F.i.7.v x x v v b b N J J J P P J P ",
"v n n c z < < < > , < [ f.q.^ s A s 4 2 X     o 0 k Q _ -.1.m.C.Z.C.#.U R k.W X E P , , L R { r V 1 z b N J J L P P P P I o.I I ",
"< > > - - - - > % % w p.q.+.k 5 s 0 2 = o o O 4 y y y y k =.3.m.B.j.5 # m S H O X $     - M m q q J J P P P I I I I I | I I P P ",
"# - % % % % # % % # K ,.^ ^ u 2 5 y 2 2 2 2 4 5 5 5 O   O j 3.j.N.1.H o @ 9 p ; . $ X o ; r J L P I I I I | { I I { P I P P J J ",
"@ @ o # # @ o @ @ @ { +.E / y 2 2 y 2 = 2 7 y 4 5 2 o   X d <.j.b.<.y @   X ; , 9 r S J L P P P U I { U U I I P J P J P I P J P ",
"o X X X + X X X X @ { _ E E u 2 2 y 5 2 4 7 0 5 5 2 O o O d *.=.z.W @ @ - q M J P P P P I P P P I K P P P I P K P P I I { P P K ",
"X X X X X o o @ # # / k a / 8 $ 2 4 y 5 4 y i 7 4 4 = = 8 d k l 1./ q B J P P P P [ U P P K P K K P P I I P J J K K K P I { { P ",
"X X @ @ + * * < > ; a f a / 5 2 2 : y 0 4 7 u 0 5 5 7 u j j j ) z.&.J P P P P I [ I J K K P I { { I I I I P I I P P { I I I o.I ",
"+ % > > > % + X X # s i i f 5 4 4 O 2 5 4 4 5 5 7 8 8 d =.3.l ) l.:.I K L K I { { P K K P K I { { | {  .o.o.o.| I | I I P P I o.",
"% + X X . .     . # 0 i W f 5 4 5 O : O : 2 4 5 5 y 8 d =.m.l *.j.a.J K P { { { P K K K P  .o.o.| o.o.I o.o.o.{ P P P I P { I O.",
". . . . . .   X @ % 6 k W f 7 2 4 : O : 2 = 2 2 4 5 7 k =.3.l l 1.h.K { O.O.O.K P [ { o.{ U { I I o.U P I | | I I | I { P  .o.O.",
". . . . X O 2 3 o X o u f i y 5 5 4 O O 2 2 2 2 4 0 8 i ) b.l l j.h.O.#.0.#.O.o.I o.o.o.I P J P P | I K J K I  .o.I I o.o. .| I ",
". o o $ 3 2 $ # X # ; Z f u 5 5 4 2 $ : 4 2 5 4 5 8 u u ) j.] j 1.s.9.0.9.6.O.| o.I | { I L P o.I P P I P  .I I I I { { | { I | ",
": : O # # % , q B L Y | G G 7 : 2 2 2 2 = = 5 2 4 8 d h *.<.l l j.s.O.5.O.o.5.| | o.[ P [ {  .|  . .P S [ { P { [ 5. .| [  .{ | ",
"# & 9 V B L U U U U | 4.5.G 7 6 5 d d = = 4 2 O = 2 4 h =.b.l ) n.a.o.o.w.O.5.5.5. .P P 5.|  .{ | { [ P S P { P P  .| [ P { [  .",
"B L Y I U U o.R | | | o.4.o. .G +.G G O 2 7 7 O 2 4 8 h *.b.) *.N.l.O.4.9.9.9.6.9. . .{  .O. .P [ { [ [ { [ [ D [ D D S S D D { ",
"Y U U | 4.U 4.R R 4.4.5.5.5.5.6.w.%.G d 5 5 2 2 2 7 8 d h b.*.l n.C.#.X.O.O.9.O.9.5.9.#.{  .[  .[ D S P { Z S [ [ [ D D { [ [ S ",
"o.4.R 5.5.I | 4.o.4.6.w.6.9.0.9.0.%.G d d 5 4 e 8 4 8 h ( b.) h -.Z.p.O.5. . .X.{  . . . .{ { { { S S Z C D [ D K S S D P P D S ",
"o.4.4.6.4.4.5.5.5.0.6.w.w.y.y.w.y.g.G G 8 7 7 y h d 8 d ( <.( d j M.l.+. .! {  .} {  .O.#.} {  .! Z [ ! [ G S M C Z Z m m D [ 5.",
"o.R 4.5.4.0.6.5.6.w.w.w.w.0.y.y.s.t.:.G d 7 7 d =.h 8 d ( <.) d j 2.a. .{ {  .} { E !  .[ [ +.{ [ S G P [ ! D S C D M [ D  . . .",
"5.4.o.o.5.4.9.0.w.6.w.w.w.6.y.y.y.p.p.) d 8 8 G -.G 8 d ] -.) d h 1.a.{ +.+.} } { / } } } { { !  .! D  . .9.D D G S S O.[ D [ [ ",
"w.5.4.5.5.9.4.4.w.y.w.6.w.w.9.q.y.y.t.G G h d h =.G d h ) *.-.G h 3.h./ } / p ~ ~ } } +.} A ! D G [ G Z C D 9 t D [ Z D Z P  .P ",
"6.6.0.0.5.| 4.5.0.y.y.0.w.w.9.9.0.9.q.&.G G h l =.h d G G -.*.G d -.M.#.} / A } ..+.X.~ / ! { { O. .| G Z [ D D D Z [ D D { 9.D ",
"e.w.w.5.5.O.0.0.w.y.w.w.t.0.X.9.q.X.O.%.` ( h ) *.G d ) ` :.G G f ` :.^ ^ +...+.+.../ A A A C Z | D | [ [ }  .} [ M D { S S P Z ",
"5.5.o.|  .4.9.5.w.q.y.w.| 0.q.w.9.9.X.#.&.G h ( =.) d ) G G d 0 e E _ / ^ } _ } X.} ^ ^ } / Z m D P D } X.O. .D D D [ S C [ { } ",
"9.0.4.o.o.9.0.9.o.9.0. .o.4.9.6.9.O. .0.p.+.G ' -.;.h G G G 2 5 u s a E ^ ^ / / %.%.&.+.#.O.! { Z Z G D  . .[ P M M } } ~ } { } ",
"o.0.9.e.9.w.9.o.9.9.O. . .G X.G 9.X.O.9.r.&.G @.*.,.( G 7 2 0 C u a G A } +.#.+.^ ..q.E ~  .{ } | [ { { G } { [ S Z ! &.q.} } O.",
"U  .9.0.o.O. .m o.O.9.9.O.O.#.X.+.O.w.I X.%.] ' =.<.@.e 3 w 0 0 Z Z G E / ^ ..} A Z / { } } { } [ D } { [ } } D ! D S { } 9.O. .",
"5.G | 5.G I O.G G O.O.5.G +.q.O.G  .G G X.r._ G G =.-.d r e y y E / E / E } ^ ^ E w Z } } } { ! } { } [ | [ } } } S m m { t.x.9.",
"5.X.$.O.m r ~ G 9.#.o.P { { O.G G o.G U | q.@.G ] =.b.G e w 0 C G X.G { } } ~ ^ } { } ....+.} ~ #.#.} G [ { { G [ [  .{ #.#.o.{ ",
"e.q.e.9.{ 5.9. .{ C G } } G S G G G S G G O.r.G G =.1.h.G G G G G | G G X.^ A A { G [ ..X.q.9.&.+.}  . .O.G Z { { { { { {  .{ S ",
"0. .X.} } G I G G { } I G { S G I | S S S  .q.&.@.` -.;.' G G G { G G | A Z G { O.} } 0.+.X.q.q.q.%.} { [ { { | O.{ D Z | | { { ",
" .O.| G } | o. .| G | G { [ P U G Z Z Z S G y.G G &.-.=.@.G #.9.}  .G 0 9 Z ^ { } } { { G G X.q.#.X.} #.~ [ } { } G | { } { { G ",
"G G G 4.X.} G  .#.O.o.| | Y | { S C S G G 0.&.G G G G ' ' G G G G } G G { G  .} } G +.X.X.} G { / } 9.X.+.} G | G } { G O. .{ ~ ",
"S L I o.}  .}  .{ D Z G G G K K S S m C S G G 0 7 8 3 Z G G  .G { { G | G { { G A p ..#.X.O.{ } } ^ ....~ ~ [ { { X.0.X.s.O.~ #.",
"|  .G G  .G | Z r m m G Z M G L G M , m M Z 0 & O : w G O. . . .G { G B {  .| D Z D { } O.9.D S G } #.+.} { } | { 9.r.q.#.} } { ",
"} } I | Z C r q Z Z m q w S G J Z m m S S S m m Z S Z G G G G B { | D G G { G G } [ G A G D Z G [ } X.#.[ { G { } +.9.+.} O.| G ",
"~ [ G P I G G D G G J m M M G L S B S S G U | I | G  .O. .| G | { G G G B S o.{ } } G X.[ [ } } ~ { } X.G [ D D G G O.X.G S D G ",
"D I U  .{ M J S M T L G I { I | R G G U | I G | { X. .D C S G G o.O.{ G G D { { } G {  .X...} { } } ~ { | G O.{ S { S Z { G { S ",
"{  . . .P P P P Z G | K 0.w. .[ G 4.G U G I I I G G G B D G O.X.} G | } } X.X.G O.e.0.G G [ G { ~ } G D | { } { { } G D G Z m m ",
" .I D w t M m w t Z [ | | 4.G r S | 4.G S | I m V B S U G 4.o.U S D D V D O.{ M D o.I { D { | G ~ X.~ A Z C D { } } G { D Z S G ",
"{ [ t Z D m m Z M S D r S D Z Z G R U M m Z S V m M D Z D G S G | S S B S G V S C m Z C D G { D } O.} { D O.{ G D G G { G S Z Z ",
"P [ Z G J G K P G P G D Z D D I 4.G M m m m m G m m m Z m q B S B S G G D G S G G Z D C D D Z G { G D Z S 5.{ [ D { O.O.| | G C ",
"S G { I I  .J G P I | { [ K G B S B B S G S m Z m M G S m m M S | S G S C Z S D D D Z r D Z r C Z C m w Z G q.O.M m Z G G Z w w ",
"D { P D m M Z w [ o.G I I J B m S U S S Y G V M G M B U M Z C M M S S G Z C D | { G t m S G G C G r 9 r G O.t.i.G w > 9 q $ $ m "
};
