/* XPM */
static char *moco06[] = {
/* columns rows colors chars-per-pixel */
"64 48 222 2 ",
"   c #241B14",
".  c #281F16",
"X  c #2D231A",
"o  c #2A2017",
"O  c #31251C",
"+  c #36281E",
"@  c #3A2A1E",
"#  c #332921",
"$  c #3B2D22",
"%  c #3C322A",
"&  c #393028",
"*  c #3F3830",
"=  c #433125",
"-  c #4A3426",
";  c #42352B",
":  c #4C392C",
">  c #48372A",
",  c #533B2C",
"<  c #5A3D2C",
"1  c #4C3D32",
"2  c #443A32",
"3  c #533F31",
"4  c #422F22",
"5  c #603D29",
"6  c #4C4139",
"7  c #564132",
"8  c #5A4232",
"9  c #5A493C",
"0  c #58402F",
"q  c #674B39",
"w  c #744D36",
"e  c #78533C",
"r  c #6A4935",
"t  c #584D44",
"y  c #5F564E",
"u  c #654F40",
"i  c #6D5545",
"p  c #665448",
"a  c #785A46",
"s  c #675D54",
"d  c #66625C",
"f  c #746357",
"g  c #6E6C66",
"h  c #756F68",
"j  c #75726C",
"k  c #787974",
"l  c #895539",
"z  c #995C3B",
"x  c #A55E38",
"c  c #A65E38",
"v  c #9B603F",
"b  c #A4623E",
"n  c #AA623C",
"m  c #855D44",
"M  c #925E41",
"N  c #8C634B",
"B  c #86624C",
"V  c #94664B",
"C  c #99674B",
"Z  c #8D6953",
"A  c #886855",
"S  c #956D55",
"D  c #99725B",
"F  c #AC6641",
"G  c #AD6945",
"H  c #A56847",
"J  c #B16A45",
"K  c #B26D4A",
"L  c #B5714D",
"P  c #A5755A",
"I  c #B87552",
"U  c #BC7D5C",
"Y  c #B47858",
"T  c #AE704F",
"R  c #897568",
"E  c #937564",
"W  c #9B7A66",
"Q  c #9B7D6C",
"!  c #977867",
"~  c #85746B",
"^  c #A97B62",
"/  c #A17A64",
"(  c #B87F61",
")  c #9B8477",
"_  c #80817D",
"`  c #A7806B",
"'  c #BA866A",
"]  c #A58573",
"[  c #A48A7B",
"{  c #AC8D7C",
"}  c #A98875",
"|  c #BD8B72",
" . c #B08771",
".. c #BB927E",
"X. c #C1805F",
"o. c #C38464",
"O. c #C5896B",
"+. c #C98C6E",
"@. c #C48768",
"#. c #C48E73",
"$. c #CA8F71",
"%. c #CB9175",
"&. c #CD957A",
"*. c #CE987E",
"=. c #C3937B",
"-. c #D0997F",
";. c #D0977C",
":. c #798D92",
">. c #868885",
",. c #978D86",
"<. c #99918C",
"1. c #8C9699",
"2. c #9A9896",
"3. c #8D908F",
"4. c #AD9182",
"5. c #AB968B",
"6. c #B3998D",
"7. c #B89786",
"8. c #AC9C95",
"9. c #A39D9A",
"0. c #A89C97",
"q. c #B79E92",
"w. c #A68F84",
"e. c #ACA29D",
"r. c #A5A09E",
"t. c #B3A39C",
"y. c #BCA69D",
"u. c #B8A399",
"i. c #8F9DA2",
"p. c #909CA1",
"a. c #9AA6AC",
"s. c #94A1A7",
"d. c #ACA5A3",
"f. c #ABAAAB",
"g. c #A9A7A8",
"h. c #B3A6A2",
"j. c #B4A9A6",
"k. c #B5ADAC",
"l. c #B9AFAD",
"z. c #BBABA7",
"x. c #BBB0AE",
"c. c #ACADB1",
"v. c #BDB4B4",
"b. c #BEB7B8",
"n. c #BFB8B9",
"m. c #B3B4B7",
"M. c #ABB0B6",
"N. c #C39984",
"B. c #CC9C85",
"V. c #C59B87",
"C. c #D29D84",
"Z. c #CDA18D",
"A. c #C4A08E",
"S. c #D4A38C",
"D. c #D8A68E",
"F. c #CCA491",
"G. c #CCA99A",
"H. c #C4A698",
"J. c #D3A691",
"K. c #D5AA96",
"L. c #D9AA95",
"P. c #D3AD9B",
"I. c #DBAE9A",
"U. c #D8A791",
"Y. c #DDB19E",
"T. c #D6B09E",
"R. c #E0B39F",
"E. c #C3ACA3",
"W. c #CAAEA2",
"Q. c #C4B2AC",
"!. c #CBB4AB",
"~. c #CBB2A8",
"^. c #D5B2A3",
"/. c #DCB4A3",
"(. c #D3B6AA",
"). c #DCBAAC",
"_. c #D8B8AA",
"`. c #C1B6B5",
"'. c #C4B8B6",
"]. c #CBBAB5",
"[. c #C4BBBA",
"{. c #CABEBC",
"}. c #D5BDB4",
"|. c #DCBEB1",
" X c #D2BFB8",
".X c #E1B6A3",
"XX c #E2B9A6",
"oX c #E4BDAC",
"OX c #E8BFAE",
"+X c #E1BFB1",
"@X c #CDC1BE",
"#X c #DBC1B6",
"$X c #D2C2BE",
"%X c #DCC4BB",
"&X c #E7C0AF",
"*X c #E8C0AF",
"=X c #E4C2B3",
"-X c #EAC5B5",
";X c #E4C6BA",
":X c #EAC7B8",
">X c #EBCABC",
",X c #E5CABE",
"<X c #BABBC1",
"1X c #C6BFC0",
"2X c #CDC2C1",
"3X c #C7C0C1",
"4X c #D2C5C3",
"5X c #D6C9C6",
"6X c #DACAC6",
"7X c #D7CAC8",
"8X c #DBCDC9",
"9X c #D8C7C2",
"0X c #DED0CB",
"qX c #ECCEC1",
"wX c #E4CBC1",
"eX c #ECD1C5",
"rX c #E4D4CE",
"tX c #ECD4CB",
"yX c #EDD8CF",
"uX c #E6D6D0",
"iX c #E8D7D0",
"pX c #EBD9D1",
/* pixels */
"> > 4 $ + # % % 2 2 1 , 8 8 3 , ~ <X<Xm.c.g.c.g.d.r.r.9.9.0.9.0.<.<.,.,.>.>._ j g s y s d h g h j j j j j k k j j j 1.:.:.1.:.:.",
"= = + X o o X # O # $ : , 7 8 , p g.M.M.g.g.d.9.9.9.d.h.h.h.t.t.8.0.,.,.~ g y d g k :._ >.>.:.>.>.>.:.3.2.2.e.e.y.!.!.z.t.z.r.s.",
"= $ + o . . X X X O @ = - , 0 8 q ,.c.r.2.r.g.9.d.}.|.}.|.|.+X+X#X).G.H.4.) 3.1.i.1.1.i.i.i.i.i.s.g.x.!.!.#X&X).=X=X_._.^.P.G.G.",
": - = - = ; 1 9 t s f A ! [ 5.q.u.E.g.2.r.x.9X]. X>XOXoX-X:X-X-X>X>X=X=X).^.E.c.a.a.a.a.a.a.c.v.Q.#X=X:X:X:X&X&X&X).&X/./.T.T.T.",
"E Q ) w.5.u.y.E.Q.Q.!.!.!.E.H.u.7.{ ) 2.;XeXtX-X>X:XOXOXOX-X-XOX-X*XR.L.U.L.S.7.f.m.m.[.@X X}.=X=X=X-X-X>X-X&X&XXXXX&XXXI.).)./.",
" X X}.}.!.Q.E.H.q.6.4.[ / W S V M m { 6XyXyXqX-X:X:XXXXXoXoXOXOXR.R.I.S.%.%.+.I V.}.%X;X=X).).XXXX*X*X*X-XXXR.&X).Y.&XI.U.I.I.I.",
"6.6.4.[ ] ) E E D Z N m a l e w e ! ;XyXyXyXeX>X:XoXU.S..XOXXXI.R.I.L.;.X.I K n #./.).).).)..X.X&X*XXX.X.X.X.X&XXX/.Y.L.Y.Y.Y.Y.",
"D A A A B B a a e a e r , - 4 , Q =XyXyXtXeX>X-X-XoXU.-.C.=X=XD.L.L.L.-.X.J n n o.S.U.L./.Y..XXXXX.XY.Y.I./.R.*XXX).XX/.XXXX&X&X",
"B A Z Z Z S S Z S D V w , , q ! >XyXyXyXeX>X-X-X-X;X/.&.&.+XoXD.D.L.D.+.L J n J O.;.-.D.Y.Y./.XXY.Y.Y._.).#X:X&XXXXX&X&X&X=X:X>X",
"D ^ P P ^ ^ P P P C V V S E 4.(.yXyXeXeX>X-X>X-X>X=XJ.#.#..XI.C.;.-.;.X.n n n n X.;.;.D.Y.Y.Y./.R.&X&X_.#X:X:X&X/.&X:X>X>X>X>X:X",
"P P P P P D P / ^ } 6.~.!.].#XwXyXtXeXqX>X-X-XOX|.Z.' &.C.^.I.C.;.;.;.L n n n J U X.+.-.L.L.Y.L.I.&XXX).,X>X>X*X=X,X>X>X>X>X>X>X",
"7.7.q.u.~.}.$X9X8XrXrXrXrXuXtXyXtXeXqX>X>X-X-XOXC.S | C.J.J.Z.C.-.+.U n n n n J L U $.;.S.L.L.L.Y.Y./.#X>X>X>X>X,X>X>X>X>X-X:X-X",
"6X8XrXrXuXuXuXuXpXrXrXrXrXwXeXeXeXqX>X-X:XOX-XR.( m ' C.J.J.B.&.X.G n n n n n K U O.$.o.-.I.L.Y._.Y._.).&X-X:X>X>X>X>X*X*XXX&X&X",
"uXuXuXuXpXpXuXuXrXrXrXrXwX-XqXtXqXqX>X-XOX.X.XU.( b ( C.S.K.B.O.b z l x x c n L X.$.$.$.-.D.I.).).).=X).*X-X-X-X>X-X-X-X&XY.Y.&X",
"pXuXuXuXuXrXrXrXrXrXrXtXwX>XeXeXeX>X-X-XXXY.I.I.&.X.%.C.C.I.B.#.n b w w l n n I +.+.$.-.D.D.I.Y.T._.).=X>X-X*X*X*X*X-X*XI.I.XX&X",
"uXpXuXuXuXuXpXiXpXuXrXeX,X:XeXeXeX>X-XOX.X.XL.I.I.I.I.C.I.I.J.%.n G w l z n I X.$.;.-.D.D.D.R.L.L.^._.:X-X*XXXXXXX*X-X&XR.=X:X).",
"pXpXpXpXpXpXpXpXiXiXtXwX-X:XqXeXeXqX+X.XoXXXL.I.-X-XXX.X.XU.C.&.L G z b J I U X.+.-.-.S.S.L.I.K.L.P.).>X&X.X.X.X.XoXXXoX-X:X:X-X",
"pXpXpXpXpXpXpXpXrXrXwXOX.XoX:XqXqX;X;XXX.XL.$.C.>X:XOXJ.B.C.B.o.L F H n J X.o.O.$.S.-.&.S.J.K.L.S.G.#X;X&X).Y..X.X.X.XXXoX-X>X*X",
"pXpXuXuXrXrX8X5X X XOXoXY.XXI.+X|.oX/.T.I.&.Y B.:X+XZ.S Z | @.I L G x c L @.o.+.-.-.-.;.%.&.Z.Z.Z.Z.^.|.&XY./.Y.XXXX.XR..XXX&XoX",
"pXuXrX8X$X@X].@X].].|.oX.X.XI.J.N.N.Z.V.B.#.B.OX-X/.W < 4 m ( L G F c c K o.+.;.;.-.S.D.@.' %.#.B.B.H.T.^./..X/..XY.Y.L.L.I./.|.",
"0X9X$X#X@X].}.].].].].)..XL.C.Y K K N.7.| B.+X-XoXJ.a X . 4 M H F H l l x T %.+.$.-.U.U.' Y ' ' | O.=.G._.)././.Y..XD.D.C.D.Y./.",
"$X#X@X$X@X].@X@X].].`.~.V.Y C z z m S 7.V.^.oXoX/.C.B $ @ r l l < - X > - 0 V ` %.&.Z.*.X.T Y Y ^ ' ' N.(.T.S.K.).P.D.*.+.C.S.S.",
"%X$X#X@X@X].].].].'.`.Q.q.P z V a 3 9 { W.(.+X+X/.I.=.^ T L l 4 O X .   O % = 0 e P ' +.X.| ..A.G.......A.G.P.P.K.B.%.O.%.;.%.;.",
"$X$X$X$X@X@X].].].].`.`.l.q.5.,.~ q , ~ 6.) 5.6.G.P.N.W A r q 3 + X # 2 9 % 6 6 : 8 a P P P  .6.H.H.A.7.7.V.A.N.A.B.&.%.%.;.;.;.",
"6X$X$X$X@X@X@X].].].`.x.z.j.t.0.) S a q i 9 t p R E A i u 1 ; + O . # # % p t $ + > + q C V V W { H.q.H.!.H...=.V.F.S.Z.B.B.-.&.",
"6X$X$X$X$X$X@X].].].].Q.Q.z.h.e.0.5.[ ) R f t 1 1 1 1 1 7 9 q 9 : O + $ 6 6 & #       7 C N B q ! ..N.].}.!.G.G.G.F.G.^.T.J.S.L.",
"%X$X$X$X$X4X@X@X@X].].`.`.Q.x.z.j.h.d.e.9.9.<.h t 1 2 % 2 ; 2 1 9 p q i s t #       O r e q B p Q 7.W.(.!.(.~.(.P.P.^.)./.P.J.P.",
"4X6X6X6X9X4X$X$X@X@X].].].`.`.Q.x.z.z.k.h.h.t.9.,.j t 2 % & & # % 1 p A i &     o $ e Z D D R R ) ) E.!.(.#X_._.P.G.^.^.T.T.J.Z.",
"8X6X9X8X9X4X$X@X$X$X{.].].].].'.].'.v.v.x.l.k.h.d.9.<.j t * & # # # # $ .       - a W ` ] ] } [ 5.,.t.G.~.%X#X)./.^.J.P.^.).^.K.",
"6X6X8X9X$X@X4X4X5X@X{.{.@X@X{.'.].[.`.`.'.l.l.l.k.h.d.9.<.g t & # X X       o - w Z ` }  .{ { 5.e.e.d.y.}.$X%X%X).).^.J.P.).).^.",
"8X6X6X4X$X4X4X9X5X4X$X$X$X$X{.{.[.[.].].'.'.`.z.l.x.k.j.g.r.>.s 6 # X X O @ < w a D W } { 7.8.t.l.v.f.r.z.~.}.}.(._.^.^._.=X-X).",
"0X0X6X9X6X6X4X@X9X@X$X4X{.@X@X].{.{.[.[.'.'.v.`.'.v.x.k.k.k.r.9.,.k f q q w a Z D ` } { 4.e.j.l.l.v.l.d.e.e.Q.}.(.(.^.).#X=X).=X",
"8X8X8X5X5X5X4X6X7X4X5X{.{.4X4X2X1X].[.{.].`.'.[.'.`.x.l.x.l.k.j.d.d.2.2.) Q W Q ] { 6.t.h.k.l.l.l.v.`.v.k.f.j.z.W.(.~.(.(.).+X=X",
"rX6X6X6X4X4X7X8X4X4X X].4X4X4X2X2X{.{.2X2X{.1X{.{.'.`.`.v.x.v.x.k.k.k.k.k.d.e.8.8.t.j.l.l.l.v.l.k.v.v.b.n.b.l.d.Q.!.H.~.F.(.+X+X",
"5X6X4X$X9X9X4X4X4X4X4X{.{.4X2X2X4X1X{. X2X2X4X{.1X{.`.'.`.[.v.x.k.b.v.k.k.v.k.l.v.v.l.l.`.[.b.x.b.`.x.b.[.b.m.k.k.Q.!.}.W.(._.|.",
"6X6X6X4X9X4X4X X4X X4X{.4X7X2X4X4X4X1X4X1X{.2X4X'.'.'.1X[.`.`.'.`.[.n.b.b.b.n.[.`.l.v.v.[.`.[.v.`.`.v.v.`.[.`.v.k.h.t.y.].}.|._.",
"5X5X6XrX5X4X$X$X4X4X4X4X$X4X2X7X7X4X4X4X4X1X4X1X{.'.'.{.[.`.`.1X`.[.2X1X`.1X[.[.`.v.v.[.b.[.[.[.`.`.v.b.v.b.`.[.v.v.k.k.!.!.~.H.",
"rX6X8X8X8X4X4X4X4X7X4X4X4X{.{.4X2X1X4X1X].{.{.{.'.`.'.1X{.'.`.[.[.[.2X2X[.[.1X[.[.b.[.[.b.b.v.[.v.b.b.v.v.v.`.[.b.m.v.v.v.q.6.6.",
"wX5X6XrX4X4X7X7X7X4X{.{.4X2X2X4X4X{.].'.'.1X1X1X'.`.[.{.1X{.`.[.[.[.[.@X2X{.[.2X[.b.[.[.`.b.b.[.1X1X[.v.l.`.b.k.b.`.b.b.b.h.8.e.",
"4X4X5X5X4X4X5X7X5X2X].{.1X2X{.{.2X4X{.[.{.4X4X2X{.'.`.[.{.1X1X[.[.1Xb.[.1X[.[.1X2X[.b.[.`.v.v.b.[.[.b.[.`.[.b.v.[.[.[.[.b.k.k.d.",
"7X7X4X4X5X4X2X4X4X4X4X4X2X2X2X4X2X2X{.[.{.1X4X2X`.`.v.`.'.[.2X1X`.1X[.[.`.v.`.[.1X[.[.[.[.v.k.k.b.n.[.n.b.b.v.x.b.b.[.[.b.b.x.c.",
"6X7X4X4X6X4X2X4X4X1X2X4X5X4X2X4X4X1X{.{.2X4X{.2X{.{.[.{.[.`.[.[.[.1X{.[.b.`.[.[.[.[.v.v.v.l.l.v.[.[.1X1X[.[.`.b.`.`.v.l.x.b.v.v.",
"4X8X4X4X4X4X4X5X4X{.2X7X7X2X4X4X5X{.{.4X{.4X1X4X2X1X{.1X[.`.[.1X[.[.2X1Xb.[.1X[.1X[.v.v.`.b.k.`.n.1Xn.1X1X`.b.v.b.[.v.v.b.b.b.v.",
"5X7X7X4X{.4X2X2X'.'.].4X7X2X2X7X4X{.1X4X2X[.[.4X1X{.[.'.`.`.[.2X3X2X2X[.[.[.[.[.[.b.k.v.b.v.k.v.[.b.l.1X1X[.1X[.[.[.b.v.b.l.v.v.",
"7X4X4X7X5X5X4X2X2X1X4X7X7X2X2X4X4X{.1X4X2X].`.1X1X`.[.1X[.1X3X4X2X1X{.[.[.`.[.b.k.v.v.n.b.v.v.b.n.b.k.[.[.n.1Xv.b.[.v.x.l.f.x.1X",
"7X4X2X4X7X4X4X4X7X3X7X8X7X2X4X3X{.{.].[.[.2X1X2X2X[.2X2X[.1X2X1X[.[.[.[.3X[.[.[.b.b.n.[.n.b.v.v.b.b.b.[.[.[.1Xn.b.`.`.b.l.l.b.n.",
"4X2X3X4X4X4X2X2X4X7X5X5X7X7X8X4X[.`.`.`.{.4X2X4X4X1X2X2X{.1X1X`.b.`.`.[.2X[.b.n.[.[.[.n.[.v.x.b.1Xn.n.1X1X1X1X[.[.v.k.v.v.v.v.b.",
"7X7X4X7X2X4X4X5X4X8X4X4X1X7X8X4X{.{.`.`.1X{.[.1X4X2X`.'.{.4X1X[.v.b.[.1X3Xl.k.[.[.1Xn.b.v.k.k.n.b.v.v.n.b.n.[.b.b.b.v.m.b.b.x.m."
};
